<?xml version="1.0" encoding="UTF-8"?>
<svg version="1.1" xmlns="http://www.w3.org/2000/svg" width="632" height="337">
<path d="M0 0 C1.29693535 0.03185898 1.29693535 0.03185898 2.62007141 0.06436157 C4.45177833 0.11062789 6.28341965 0.15955654 8.11499023 0.2109375 C10.89749203 0.28827621 13.68010251 0.35574152 16.46289062 0.421875 C18.24610927 0.46815592 20.02931307 0.51501279 21.8125 0.5625 C23.04887459 0.59227432 23.04887459 0.59227432 24.31022644 0.62265015 C32.33645402 0.85792024 39.25766027 1.28169789 46.30078125 5.5390625 C46.90857422 5.9002417 47.51636719 6.2614209 48.14257812 6.63354492 C57.77478621 12.52693539 64.30148898 20.42513238 67.17578125 31.5390625 C67.25348088 35.73484256 66.84948267 39.76729596 66.23828125 43.9140625 C65.57828125 43.9140625 64.91828125 43.9140625 64.23828125 43.9140625 C64.34140625 44.8009375 64.44453125 45.6878125 64.55078125 46.6015625 C64.12794468 51.08363017 62.60447015 51.96864721 59.23828125 54.9140625 C57.92282909 56.28623846 56.61052827 57.66143991 55.30078125 59.0390625 C52.17105794 62.20435085 49.24469286 63.95971537 45.23828125 65.9140625 C44.27784023 67.99096828 44.27784023 67.99096828 44.23828125 69.9140625 C45.14578125 70.0584375 46.05328125 70.2028125 46.98828125 70.3515625 C49.45305081 70.77815723 51.82675232 71.26480471 54.23828125 71.9140625 C54.23828125 72.5740625 54.23828125 73.2340625 54.23828125 73.9140625 C55.22828125 73.9140625 56.21828125 73.9140625 57.23828125 73.9140625 C57.23828125 74.5740625 57.23828125 75.2340625 57.23828125 75.9140625 C57.79515625 76.1615625 58.35203125 76.4090625 58.92578125 76.6640625 C64.36035873 79.60167195 68.16249828 83.60015661 71.23828125 88.9140625 C71.23828125 89.5740625 71.23828125 90.2340625 71.23828125 90.9140625 C71.89828125 90.9140625 72.55828125 90.9140625 73.23828125 90.9140625 C73.42390625 92.615625 73.42390625 92.615625 73.61328125 94.3515625 C73.92265625 96.115 73.92265625 96.115 74.23828125 97.9140625 C74.89828125 98.2440625 75.55828125 98.5740625 76.23828125 98.9140625 C77.64217929 103.31070126 77.1529258 107.69725497 76.80078125 112.2265625 C76.74857422 112.96712891 76.69636719 113.70769531 76.64257812 114.47070312 C76.51377973 116.28558959 76.37684863 118.09989575 76.23828125 119.9140625 C75.57828125 119.9140625 74.91828125 119.9140625 74.23828125 119.9140625 C74.13 120.63722656 74.02171875 121.36039062 73.91015625 122.10546875 C72.22822194 129.1363453 67.16593115 135.72706261 62.23828125 140.9140625 C60.92666711 141.62250485 59.58889407 142.2831368 58.23828125 142.9140625 C57.37074219 143.37683594 56.50320312 143.83960938 55.609375 144.31640625 C40.21802464 152.37073474 25.64634667 153.18590693 8.5 152.79296875 C7.25321976 152.76935776 6.00643951 152.74574677 4.72187805 152.72142029 C0.78970469 152.64563092 -3.14222798 152.56124856 -7.07421875 152.4765625 C-9.76104316 152.42255353 -12.44790309 152.37043252 -15.13476562 152.31835938 C-21.67722807 152.19013238 -28.2195157 152.05487445 -34.76171875 151.9140625 C-34.76171875 152.5740625 -34.76171875 153.2340625 -34.76171875 153.9140625 C-37.07171875 153.5840625 -39.38171875 153.2540625 -41.76171875 152.9140625 C-41.76171875 150.9340625 -41.76171875 148.9540625 -41.76171875 146.9140625 C-36.81171875 145.9240625 -36.81171875 145.9240625 -31.76171875 144.9140625 C-29.91828863 140.22491855 -29.48888774 136.05584664 -29.55053711 131.07617188 C-29.55185135 130.3144014 -29.55316559 129.55263092 -29.55451965 128.76777649 C-29.56097976 126.26432593 -29.58139906 123.76118679 -29.6015625 121.2578125 C-29.60783868 119.50956554 -29.61307685 117.76131458 -29.61732483 116.01306152 C-29.63060093 111.41877675 -29.65501845 106.82462598 -29.68267822 102.23040771 C-29.72586119 94.87767059 -29.75557834 87.52489814 -29.77871895 80.17207336 C-29.7889064 77.60957805 -29.80596031 75.0471938 -29.82371521 72.48474121 C-29.83054647 70.90714618 -29.83715514 69.32955016 -29.84350586 67.75195312 C-29.85024323 67.04424271 -29.85698059 66.33653229 -29.86392212 65.6073761 C-29.87307454 61.59597146 -29.49634189 57.85340623 -28.76171875 53.9140625 C-28.74742234 52.3250724 -28.78643884 50.73456676 -28.8828125 49.1484375 C-28.95520142 47.82561768 -28.95520142 47.82561768 -29.02905273 46.47607422 C-29.08520752 45.54811035 -29.1413623 44.62014648 -29.19921875 43.6640625 C-29.64199901 35.61044899 -29.86243874 27.6141743 -29.63647461 19.54980469 C-29.51001376 14.38837857 -29.51001376 14.38837857 -31.76171875 9.9140625 C-35.15899257 9.15482521 -35.15899257 9.15482521 -38.76171875 8.9140625 C-40.10089136 8.60502267 -41.43825129 8.28463339 -42.76171875 7.9140625 C-42.76171875 6.2640625 -42.76171875 4.6140625 -42.76171875 2.9140625 C-35.81191515 1.08705228 -29.5509078 0.69289254 -22.38671875 0.8515625 C-20.4414802 0.88598022 -18.49615999 0.91612431 -16.55078125 0.94140625 C-15.70209473 0.95937256 -14.8534082 0.97733887 -13.97900391 0.99584961 C-9.27323525 0.82227193 -4.86411425 -0.13931772 0 0 Z M-5.76171875 10.9140625 C-5.8551879 12.57144693 -5.87916852 14.23280894 -5.87524414 15.89282227 C-5.87516861 16.95384659 -5.87509308 18.01487091 -5.87501526 19.10804749 C-5.86985397 20.2621965 -5.86469269 21.41634552 -5.859375 22.60546875 C-5.85796005 23.78044418 -5.8565451 24.95541962 -5.85508728 26.16600037 C-5.84946867 29.93621314 -5.83691301 33.70636754 -5.82421875 37.4765625 C-5.81920615 40.02538977 -5.81464283 42.57421797 -5.81054688 45.12304688 C-5.79949319 51.38673883 -5.78273696 57.65039649 -5.76171875 63.9140625 C-1.51246263 64.14001076 2.73760569 64.34177376 6.98828125 64.5390625 C8.19484375 64.60351562 9.40140625 64.66796875 10.64453125 64.734375 C11.8046875 64.7859375 12.96484375 64.8375 14.16015625 64.890625 C15.2284668 64.94299316 16.29677734 64.99536133 17.39746094 65.04931641 C20.3058344 64.91084624 21.78448724 64.40821288 24.23828125 62.9140625 C24.90988281 62.5840625 25.58148438 62.2540625 26.2734375 61.9140625 C27.27697266 61.4190625 27.27697266 61.4190625 28.30078125 60.9140625 C29.30818359 60.4190625 29.30818359 60.4190625 30.3359375 59.9140625 C32.4721574 58.83314426 32.4721574 58.83314426 35.23828125 56.9140625 C35.23828125 56.2540625 35.23828125 55.5940625 35.23828125 54.9140625 C35.89828125 54.9140625 36.55828125 54.9140625 37.23828125 54.9140625 C38.56997367 53.22899568 38.56997367 53.22899568 39.80078125 51.1015625 C40.23519531 50.39386719 40.66960937 49.68617187 41.1171875 48.95703125 C44.27350774 43.20526997 44.21688417 35.80305592 42.63671875 29.5234375 C41.91792311 27.62117026 41.08221118 25.76421657 40.23828125 23.9140625 C39.74328125 22.4909375 39.74328125 22.4909375 39.23828125 21.0390625 C38.30809253 18.58745643 38.30809253 18.58745643 35.23828125 16.9140625 C34.57828125 16.2540625 33.91828125 15.5940625 33.23828125 14.9140625 C31.58836543 14.20695572 29.91894271 13.54461724 28.23828125 12.9140625 C27.46871094 12.57246094 26.69914062 12.23085937 25.90625 11.87890625 C18.01206961 8.60934807 1.21233093 3.94001282 -5.76171875 10.9140625 Z M4.80078125 73.2890625 C3.89134766 73.33289063 2.98191406 73.37671875 2.04492188 73.421875 C-2.19352241 73.28263604 -2.19352241 73.28263604 -5.76171875 74.9140625 C-5.89590391 76.88609897 -5.96079786 78.86287984 -5.9987793 80.83911133 C-6.0251799 82.10745316 -6.05158051 83.37579498 -6.07878113 84.68257141 C-6.10241241 86.0787386 -6.12562079 87.47491301 -6.1484375 88.87109375 C-6.17408505 90.29498026 -6.19986909 91.71886431 -6.2257843 93.14274597 C-6.27883529 96.1329574 -6.32774415 99.12320565 -6.37426758 102.11352539 C-6.43453915 105.94381436 -6.50877371 109.77369151 -6.58664227 113.60365772 C-6.64428748 116.54695044 -6.69256487 119.49034288 -6.73822975 122.43384361 C-6.76162428 123.84567859 -6.78837487 125.2574621 -6.8185482 126.66916847 C-6.85977549 128.64620901 -6.88662205 130.62353357 -6.9128418 132.60083008 C-6.93203171 133.72588455 -6.95122162 134.85093903 -6.97099304 136.01008606 C-6.67810892 140.07426694 -5.61309974 142.06268151 -2.76171875 144.9140625 C0.01881371 145.30301788 0.01881371 145.30301788 3.26953125 145.36328125 C5.07357422 145.42805664 5.07357422 145.42805664 6.9140625 145.49414062 C8.17605469 145.52958984 9.43804687 145.56503906 10.73828125 145.6015625 C12.00027344 145.64861328 13.26226562 145.69566406 14.5625 145.74414062 C20.57491317 146.28996552 20.57491317 146.28996552 26.23828125 144.9140625 C27.75421875 144.6975 27.75421875 144.6975 29.30078125 144.4765625 C30.27015625 144.2909375 31.23953125 144.1053125 32.23828125 143.9140625 C32.56828125 143.2540625 32.89828125 142.5940625 33.23828125 141.9140625 C34.45515625 141.5428125 35.67203125 141.1715625 36.92578125 140.7890625 C41.42498322 139.22482382 43.3366653 136.75089121 45.9140625 132.8515625 C47.20229686 130.96671222 48.5775798 129.47249202 50.23828125 127.9140625 C49.90828125 127.2540625 49.57828125 126.5940625 49.23828125 125.9140625 C49.89828125 125.5840625 50.55828125 125.2540625 51.23828125 124.9140625 C52.67448952 119.40408109 52.35055243 113.69000552 52.30078125 108.0390625 C52.29626953 107.06453125 52.29175781 106.09 52.28710938 105.0859375 C52.27539031 102.69524816 52.25898344 100.3046881 52.23828125 97.9140625 C51.57828125 97.9140625 50.91828125 97.9140625 50.23828125 97.9140625 C48.23828125 91.9140625 48.23828125 91.9140625 47.42578125 88.8515625 C45.61982666 84.38420114 43.24681299 81.86877578 38.86328125 79.78515625 C36.33955736 78.7674045 33.80019853 77.83074853 31.23828125 76.9140625 C30.37203125 76.56730469 29.50578125 76.22054687 28.61328125 75.86328125 C20.70125018 72.70107146 13.16443072 72.80031746 4.80078125 73.2890625 Z " fill="#C89864" transform="translate(64.76171875,63.0859375)"/>
<path d="M0 0 C0.495 0.495 0.495 0.495 1 1 C1.86625 1 2.7325 1 3.625 1 C10.28705996 1 15.51872567 2.43305652 21.5703125 5.0625 C23.99718107 6.08393453 23.99718107 6.08393453 26.6796875 6.5 C29 7 29 7 31 9 C31.495 9.99 31.495 9.99 32 11 C33.65 11 35.3 11 37 11 C37 11.99 37 12.98 37 14 C37.99 14.2784375 37.99 14.2784375 39 14.5625 C53.69474309 21.60373106 64.87638634 40.12550471 70.265625 54.875 C70.50796875 55.57625 70.7503125 56.2775 71 57 C71.37125 57.969375 71.7425 58.93875 72.125 59.9375 C75.69176719 72.42118515 77.78534268 89.50493856 73 102 C72.01 102.495 72.01 102.495 71 103 C71.33 103.99 71.66 104.98 72 106 C71.34 106 70.68 106 70 106 C69.814375 107.2684375 69.814375 107.2684375 69.625 108.5625 C67.77934272 118.71361502 67.77934272 118.71361502 64 122 C63.67 122.99 63.34 123.98 63 125 C62.34 125 61.68 125 61 125 C60.9175 125.94875 60.835 126.8975 60.75 127.875 C60.37875 129.421875 60.37875 129.421875 60 131 C58.1875 132 58.1875 132 56 133 C55.42121094 133.91265625 54.84242188 134.8253125 54.24609375 135.765625 C51.79414916 139.2964252 49.36239136 141.26512655 45.875 143.75 C41.75734023 146.66382448 41.75734023 146.66382448 38 150 C35 152 35 152 32 153 C31.30777344 153.75603516 31.30777344 153.75603516 30.6015625 154.52734375 C28.51250192 156.44826043 27.17213057 156.4212768 24.375 156.5625 C22.02858158 156.64641122 22.02858158 156.64641122 20 157 C19.67 157.66 19.34 158.32 19 159 C16.26953125 159.81640625 16.26953125 159.81640625 12.8125 160.5625 C11.68457031 160.81128906 10.55664062 161.06007812 9.39453125 161.31640625 C1.78506241 162.84880792 -5.24561181 163.18631825 -13 163 C-14.44246094 162.97486328 -14.44246094 162.97486328 -15.9140625 162.94921875 C-22.27018265 162.64279422 -28.10087912 161.3215766 -34.1875 159.5625 C-34.94321289 159.34505127 -35.69892578 159.12760254 -36.47753906 158.90356445 C-38.33979331 158.33501712 -40.17351765 157.6746845 -42 157 C-42.33 156.34 -42.66 155.68 -43 155 C-46.02934491 154.34227572 -46.02934491 154.34227572 -49 154 C-49 153.34 -49 152.68 -49 152 C-50.051875 151.62875 -50.051875 151.62875 -51.125 151.25 C-54.37901828 149.83520944 -57.09096923 148.02367358 -60 146 C-61.485 145.01 -61.485 145.01 -63 144 C-67.16763456 139.67667795 -70.75705425 134.78842522 -74.38671875 130.015625 C-75.90117935 128.03128524 -75.90117935 128.03128524 -77.47753906 126.59130859 C-80.01143683 123.94282469 -81.44885898 120.6306636 -83.0625 117.375 C-83.42029541 116.65586426 -83.77809082 115.93672852 -84.14672852 115.19580078 C-86.59105999 110.15006322 -88.19019305 105.57867013 -89 100 C-89.185625 98.989375 -89.37125 97.97875 -89.5625 96.9375 C-89.706875 95.968125 -89.85125 94.99875 -90 94 C-90.26876953 92.205625 -90.26876953 92.205625 -90.54296875 90.375 C-91.09454753 85.89642564 -91.0151046 81.55969039 -90.75 77.0625 C-90.70480225 76.27125732 -90.65960449 75.48001465 -90.61303711 74.66479492 C-90.2233339 69.03181213 -89.17773837 64.21983681 -87 59 C-86.4740625 57.14375 -86.4740625 57.14375 -85.9375 55.25 C-85.11603872 52.40226758 -84.15630899 49.72558547 -83 47 C-82.34 47 -81.68 47 -81 47 C-80.7525 46.319375 -80.505 45.63875 -80.25 44.9375 C-75.90535768 34.72759055 -68.81662701 27.66662777 -61 20 C-60.53078125 19.49339844 -60.0615625 18.98679687 -59.578125 18.46484375 C-57.53643705 16.56971261 -55.32812647 15.23842595 -52.9375 13.8125 C-52.05964844 13.28269531 -51.18179688 12.75289062 -50.27734375 12.20703125 C-48 11 -48 11 -46 11 C-45.67 10.34 -45.34 9.68 -45 9 C-37.62600318 5.52988385 -30.04528251 3.18211712 -22 2 C-20.77667969 1.81566406 -19.55335938 1.63132813 -18.29296875 1.44140625 C-12.17360126 0.56109989 -6.20060292 -0.23398502 0 0 Z M-32 15 C-32.88042969 15.52851562 -33.76085937 16.05703125 -34.66796875 16.6015625 C-37 18 -37 18 -39.25 18.5 C-39.8275 18.665 -40.405 18.83 -41 19 C-41.33 19.99 -41.66 20.98 -42 22 C-43.62935241 23.37868281 -45.29749607 24.71274093 -47 26 C-47.66 26.66 -48.32 27.32 -49 28 C-49.66 28.66 -50.32 29.32 -51 30 C-51.33 30.66 -51.66 31.32 -52 32 C-52.66 32.66 -53.32 33.32 -54 34 C-54.70489644 35.65086136 -55.36200751 37.32214786 -56 39 C-57.16609321 41.73849813 -58.36626324 44.46205337 -59.5625 47.1875 C-59.87896484 47.91130859 -60.19542969 48.63511719 -60.52148438 49.38085938 C-62.86624765 54.7324953 -62.86624765 54.7324953 -64 57 C-64.33926947 59.33247761 -64.67240066 61.66585471 -65 64 C-65.33 64.99 -65.66 65.98 -66 67 C-66.09982755 69.67772714 -66.1414899 72.32266628 -66.125 75 C-66.12161621 75.78511963 -66.11823242 76.57023926 -66.11474609 77.37915039 C-66.06350937 83.40304067 -65.89337078 89.41948853 -65.625 95.4375 C-65.59422363 96.24767578 -65.56344727 97.05785156 -65.53173828 97.89257812 C-65.33554239 101.71229235 -65.16348285 103.75477573 -63 107 C-62.03025349 109.34616092 -61.09722579 111.69345909 -60.1875 114.0625 C-53.85648974 131.02655173 -53.85648974 131.02655173 -41 143 C-40.34 143.66 -39.68 144.32 -39 145 C-37.01914785 145.87787766 -35.0156845 146.70535515 -33 147.5 C-27.22222222 149.77777778 -27.22222222 149.77777778 -25 152 C-22.41645782 152.16687448 -22.41645782 152.16687448 -20 152 C-19.67 152.66 -19.34 153.32 -19 154 C-14.74505016 153.76401437 -10.49107099 153.51556381 -6.23754883 153.25537109 C-4.78950995 153.16857653 -3.34126002 153.0852332 -1.89282227 153.00537109 C0.1853812 152.89019184 2.2625174 152.76274871 4.33984375 152.6328125 C5.59144287 152.55949707 6.84304199 152.48618164 8.13256836 152.41064453 C9.0788208 152.27513184 10.02507324 152.13961914 11 152 C11.33 151.34 11.66 150.68 12 150 C13.54924263 149.10488204 15.14024101 148.28106649 16.75 147.5 C17.61109375 147.0771875 18.4721875 146.654375 19.359375 146.21875 C22 145 22 145 24.77734375 143.9765625 C25.87755859 143.49316406 25.87755859 143.49316406 27 143 C27.88693303 140.95894361 27.88693303 140.95894361 28 139 C28.66 139 29.32 139 30 139 C31.37562854 137.71034824 32.70766393 136.37310707 34 135 C34.66 134.34 35.32 133.68 36 133 C36.68170812 131.33942894 37.3455281 129.67149297 38 128 C39.11690245 125.87073277 40.24273701 123.74613897 41.375 121.625 C46.41344204 111.83210083 49.56943366 101.0512027 50 90 C50.07734375 88.37578125 50.07734375 88.37578125 50.15625 86.71875 C50.61438996 68.54586494 46.49915039 52.78669961 37.5859375 36.9453125 C36.18133696 34.33676864 35.03330013 31.77251816 34 29 C33.34 29 32.68 29 32 29 C31.505 28.01 31.505 28.01 31 27 C30.34 27 29.68 27 29 27 C29 26.34 29 25.68 29 25 C27.66710346 23.49985609 27.66710346 23.49985609 26 22 C25.505 21.484375 25.01 20.96875 24.5 20.4375 C21.65358702 17.70968756 18.62155419 16.38091903 15 15 C13.72769531 14.48759766 13.72769531 14.48759766 12.4296875 13.96484375 C11.16511719 13.45630859 11.16511719 13.45630859 9.875 12.9375 C9.02679688 12.59589844 8.17859375 12.25429687 7.3046875 11.90234375 C-4.18722739 7.4029669 -20.99360997 9.67136376 -32 15 Z " fill="#C79763" transform="translate(256,57)"/>
<path d="M0 0 C0.73605469 0.05220703 1.47210937 0.10441406 2.23046875 0.15820312 C4.02910629 0.28667723 5.82712909 0.42370949 7.625 0.5625 C7.625 1.2225 7.625 1.8825 7.625 2.5625 C8.62660156 2.52125 9.62820313 2.48 10.66015625 2.4375 C14.80598858 2.56820604 18.10453774 3.35626388 22.0625 4.5625 C23.29871094 4.93375 24.53492188 5.305 25.80859375 5.6875 C27.20271484 6.120625 27.20271484 6.120625 28.625 6.5625 C28.625 7.2225 28.625 7.8825 28.625 8.5625 C29.676875 8.7171875 29.676875 8.7171875 30.75 8.875 C34.01637647 9.65609003 36.6721852 10.98308743 39.625 12.5625 C39.625 13.2225 39.625 13.8825 39.625 14.5625 C40.19089844 14.80871094 40.75679687 15.05492188 41.33984375 15.30859375 C44.87841358 17.25027053 47.56608907 20.04550549 50.50390625 22.78515625 C52.59142227 24.75515332 52.59142227 24.75515332 55.625 25.5625 C56.058125 26.7071875 56.058125 26.7071875 56.5 27.875 C57.89281441 31.20227887 59.83914636 32.34810352 62.625 34.5625 C63.1875 36.4375 63.1875 36.4375 63.625 38.5625 C64.94846506 40.5690438 66.28229179 42.56878175 67.625 44.5625 C68.34659424 46.20613134 69.01851421 47.87300386 69.625 49.5625 C69.99625 50.408125 70.3675 51.25375 70.75 52.125 C71.625 54.5625 71.625 54.5625 71.625 58.5625 C72.285 58.8925 72.945 59.2225 73.625 59.5625 C75.81995362 66.85031987 75.94996865 74.88517092 76.375 82.4375 C76.46019897 83.79246582 76.46019897 83.79246582 76.54711914 85.17480469 C76.78276602 90.14229624 76.55138212 93.88613762 74.625 98.5625 C74.28584494 99.89436438 73.95186641 101.22756658 73.625 102.5625 C73.15957134 104.02527578 72.67980285 105.48354859 72.1875 106.9375 C71.79111328 108.11119141 71.79111328 108.11119141 71.38671875 109.30859375 C71.13535156 110.05238281 70.88398437 110.79617187 70.625 111.5625 C70.068125 113.2640625 70.068125 113.2640625 69.5 115 C68.625 117.5625 68.625 117.5625 67.625 119.5625 C66.965 119.5625 66.305 119.5625 65.625 119.5625 C65.2846875 120.5525 65.2846875 120.5525 64.9375 121.5625 C62.18496215 127.85401508 58.66100608 132.87784318 53.625 137.5625 C52.76261719 138.47128906 52.76261719 138.47128906 51.8828125 139.3984375 C44.1599389 147.49349778 36.11505502 152.76559456 25.625 156.5625 C24.35006238 157.11563441 23.07871832 157.67718695 21.8125 158.25 C16.00470062 160.6414468 10.82146342 160.68399928 4.625 160.5625 C4.625 161.2225 4.625 161.8825 4.625 162.5625 C-5.60061464 162.75323685 -15.36318365 162.92483869 -25.375 160.5625 C-27.20753786 160.20424014 -29.04086394 159.84998579 -30.875 159.5 C-33.48483561 158.98735372 -35.84288255 158.40653915 -38.375 157.5625 C-38.375 156.9025 -38.375 156.2425 -38.375 155.5625 C-39.15875 155.60375 -39.9425 155.645 -40.75 155.6875 C-43.375 155.5625 -43.375 155.5625 -45.375 153.5625 C-45.705 152.9025 -46.035 152.2425 -46.375 151.5625 C-47.365 151.8925 -48.355 152.2225 -49.375 152.5625 C-49.705 151.9025 -50.035 151.2425 -50.375 150.5625 C-51.1175 150.294375 -51.86 150.02625 -52.625 149.75 C-56.0122472 148.28732507 -57.81162317 146.18996125 -60.375 143.5625 C-61.303125 143.005625 -62.23125 142.44875 -63.1875 141.875 C-63.909375 141.441875 -64.63125 141.00875 -65.375 140.5625 C-65.375 139.9025 -65.375 139.2425 -65.375 138.5625 C-66.86 137.5725 -66.86 137.5725 -68.375 136.5625 C-68.705 135.5725 -69.035 134.5825 -69.375 133.5625 C-70.365 133.2325 -71.355 132.9025 -72.375 132.5625 C-72.045 131.9025 -71.715 131.2425 -71.375 130.5625 C-72.035 130.5625 -72.695 130.5625 -73.375 130.5625 C-77.375 123.8125 -77.375 123.8125 -77.375 121.5625 C-78.035 121.2325 -78.695 120.9025 -79.375 120.5625 C-79.875 118.0625 -79.875 118.0625 -80.375 115.5625 C-81.035 115.2325 -81.695 114.9025 -82.375 114.5625 C-84.30748529 110.54293059 -85.61969079 106.96847041 -86.375 102.5625 C-86.705 101.9025 -87.035 101.2425 -87.375 100.5625 C-87.58032132 99.21365298 -87.74089844 97.8577783 -87.875 96.5 C-88.1978429 93.30744245 -88.5495841 90.12278124 -88.9375 86.9375 C-89.36718947 83.11729207 -89.45674321 79.40443082 -89.375 75.5625 C-88.715 75.5625 -88.055 75.5625 -87.375 75.5625 C-87.395625 74.593125 -87.41625 73.62375 -87.4375 72.625 C-87.4375 61.6875 -87.4375 61.6875 -85.375 57.5625 C-84.715 57.5625 -84.055 57.5625 -83.375 57.5625 C-83.045 55.2525 -82.715 52.9425 -82.375 50.5625 C-81.715 50.5625 -81.055 50.5625 -80.375 50.5625 C-80.87 49.0775 -80.87 49.0775 -81.375 47.5625 C-79.89 47.0675 -79.89 47.0675 -78.375 46.5625 C-78.375 45.5725 -78.375 44.5825 -78.375 43.5625 C-77.715 43.5625 -77.055 43.5625 -76.375 43.5625 C-76.2821875 42.2321875 -76.2821875 42.2321875 -76.1875 40.875 C-75.1874508 36.79787635 -73.40912752 35.36906795 -70.375 32.5625 C-70.045 31.5725 -69.715 30.5825 -69.375 29.5625 C-68.385 29.2325 -67.395 28.9025 -66.375 28.5625 C-65.70050843 27.2331079 -65.03484041 25.89922467 -64.375 24.5625 C-56.37494864 17.01959443 -44.86409492 9.05886497 -34.375 5.5625 C-33.715 4.9025 -33.055 4.2425 -32.375 3.5625 C-29.25 3.9375 -29.25 3.9375 -26.375 4.5625 C-26.045 3.9025 -25.715 3.2425 -25.375 2.5625 C-23.08203125 1.96484375 -23.08203125 1.96484375 -20.1875 1.5 C-19.24519531 1.34402344 -18.30289063 1.18804687 -17.33203125 1.02734375 C-16.35621094 0.87394531 -15.38039063 0.72054687 -14.375 0.5625 C-13.43785156 0.36914062 -12.50070312 0.17578125 -11.53515625 -0.0234375 C-7.60807668 -0.53798686 -3.93567146 -0.30958718 0 0 Z M-7.375 8.5625 C-7.375 9.2225 -7.375 9.8825 -7.375 10.5625 C-8.29023437 10.46710938 -9.20546875 10.37171875 -10.1484375 10.2734375 C-11.33695313 10.16257812 -12.52546875 10.05171875 -13.75 9.9375 C-14.93335938 9.82148437 -16.11671875 9.70546875 -17.3359375 9.5859375 C-18.84027344 9.57433594 -18.84027344 9.57433594 -20.375 9.5625 C-21.035 10.2225 -21.695 10.8825 -22.375 11.5625 C-26.38617564 13.61622193 -30.53262521 15.28681371 -34.8125 16.6875 C-37.50199957 17.39571744 -37.50199957 17.39571744 -39.375 19.5625 C-45.375 25.5625 -45.375 25.5625 -46.9375 27.0625 C-49.24568632 29.47104225 -51.03977103 31.7237082 -52.28515625 34.83984375 C-53.375 37.5625 -53.375 37.5625 -54.7421875 40.26171875 C-62.3943651 55.42730389 -63.73827386 69.84471178 -63.75 86.5625 C-63.75199402 87.33645111 -63.75398804 88.11040222 -63.75604248 88.9078064 C-63.75539539 91.1264314 -63.73735731 93.34404531 -63.7109375 95.5625 C-63.69595215 96.861875 -63.6809668 98.16125 -63.66552734 99.5 C-63.6930191 102.66925801 -63.6930191 102.66925801 -61.375 104.5625 C-60.787043 106.48645831 -60.25398469 108.42735823 -59.75 110.375 C-57.80757805 117.02207132 -54.88109567 122.08303544 -51.08203125 127.78515625 C-49.375 130.5625 -49.375 130.5625 -48.82421875 132.87109375 C-48.60185547 133.70833984 -48.60185547 133.70833984 -48.375 134.5625 C-47.385 134.8925 -46.395 135.2225 -45.375 135.5625 C-44.88 136.5525 -44.88 136.5525 -44.375 137.5625 C-43.715 137.5625 -43.055 137.5625 -42.375 137.5625 C-42.375 138.2225 -42.375 138.8825 -42.375 139.5625 C-41.715 140.2225 -41.055 140.8825 -40.375 141.5625 C-39.715 142.2225 -39.055 142.8825 -38.375 143.5625 C-37.715 143.8925 -37.055 144.2225 -36.375 144.5625 C-35.715 145.2225 -35.055 145.8825 -34.375 146.5625 C-31.46033628 147.810708 -28.411354 148.65824275 -25.375 149.5625 C-24.00408203 149.98789062 -24.00408203 149.98789062 -22.60546875 150.421875 C-9.4454467 154.15671392 6.14162074 154.0266521 18.56933594 147.54907227 C20.26179686 146.56590633 21.94407696 145.56526466 23.625 144.5625 C24.40875 144.376875 25.1925 144.19125 26 144 C26.804375 143.7834375 26.804375 143.7834375 27.625 143.5625 C27.955 142.5725 28.285 141.5825 28.625 140.5625 C29.615 139.9025 30.605 139.2425 31.625 138.5625 C31.625 137.9025 31.625 137.2425 31.625 136.5625 C32.3675 136.3975 33.11 136.2325 33.875 136.0625 C37.40356601 134.13782763 38.10839396 132.14384615 39.6328125 128.53515625 C40.69386887 126.42557567 41.96246763 125.21125448 43.625 123.5625 C43.79 122.7375 43.955 121.9125 44.125 121.0625 C44.625 118.5625 44.625 118.5625 46.125 117.25 C48.17643012 114.94214112 48.11163909 112.72340362 48.37890625 109.734375 C48.61957778 107.61035326 49.06079812 105.68413096 49.625 103.625 C54.99699386 82.85863568 51.70889459 59.05550176 41.375 40.375 C40.87484375 39.53582031 40.3746875 38.69664063 39.859375 37.83203125 C38.69855894 35.69774603 38.20453318 33.89562063 37.625 31.5625 C36.635 30.5725 36.635 30.5725 35.625 29.5625 C34.635 28.5725 34.635 28.5725 33.625 27.5625 C32.635 26.77875 31.645 25.995 30.625 25.1875 C27.89930311 22.80251522 27.1528244 21.6181488 25.625 18.5625 C24.29501263 18.21605737 22.96090715 17.88536372 21.625 17.5625 C20.08873421 16.80121321 18.56882951 16.00642708 17.0625 15.1875 C11.76347764 12.4629654 6.40866471 10.91495391 0.625 9.5625 C0.625 9.2325 0.625 8.9025 0.625 8.5625 C-2.015 8.5625 -4.655 8.5625 -7.375 8.5625 Z " fill="#C89863" transform="translate(522.375,57.4375)"/>
<path d="M0 0 C1.01586182 -0.00193359 2.03172363 -0.00386719 3.07836914 -0.00585938 C4.1533667 -0.00134766 5.22836426 0.00316406 6.3359375 0.0078125 C7.4386499 0.00974609 8.5413623 0.01167969 9.67749023 0.01367188 C19.37777979 0.06410301 29.03378307 0.48689993 38.7109375 1.1328125 C38.7109375 2.4528125 38.7109375 3.7728125 38.7109375 5.1328125 C37.78861328 5.38804688 37.78861328 5.38804688 36.84765625 5.6484375 C31.82412912 7.08055246 31.82412912 7.08055246 27.7109375 10.1328125 C26.15518496 13.24431758 25.58760503 15.7342445 25.61087036 19.16452026 C25.61383118 19.98285843 25.61679199 20.80119659 25.61984253 21.64433289 C25.62815094 22.53884659 25.63645935 23.43336029 25.64501953 24.35498047 C25.64969238 25.30014023 25.65436523 26.24529999 25.65917969 27.21910095 C25.6696916 29.27509576 25.68235733 31.33108041 25.69690323 33.38705063 C25.71892234 36.65054247 25.73300623 39.91397616 25.74459839 43.17752075 C25.77817901 52.45827199 25.81947845 61.73892836 25.88232422 71.01953125 C25.92019487 76.69642008 25.9430664 82.37320861 25.95663071 88.05020523 C25.96463706 90.2053722 25.97817711 92.36052653 25.99756241 94.51562119 C26.17787512 114.93484584 26.17787512 114.93484584 23.35812378 124.79837036 C22.57735891 127.21089022 22.57735891 127.21089022 22.7109375 130.1328125 C22.0509375 130.1328125 21.3909375 130.1328125 20.7109375 130.1328125 C20.5871875 130.8546875 20.4634375 131.5765625 20.3359375 132.3203125 C19.03332845 138.18205322 16.75968597 141.7804079 12.7109375 146.1328125 C12.0509375 146.1328125 11.3909375 146.1328125 10.7109375 146.1328125 C10.7109375 146.7928125 10.7109375 147.4528125 10.7109375 148.1328125 C9.7621875 148.5865625 8.8134375 149.0403125 7.8359375 149.5078125 C4.70780071 150.93519504 4.70780071 150.93519504 2.7109375 153.1328125 C1.3909375 153.1328125 0.0709375 153.1328125 -1.2890625 153.1328125 C-1.6190625 153.7928125 -1.9490625 154.4528125 -2.2890625 155.1328125 C-8.9669788 156.78777436 -15.55223279 157.69951708 -22.2890625 156.1328125 C-22.2890625 155.4728125 -22.2890625 154.8128125 -22.2890625 154.1328125 C-22.8665625 154.3390625 -23.4440625 154.5453125 -24.0390625 154.7578125 C-26.91255185 155.23672739 -27.74173391 154.49857598 -30.2890625 153.1328125 C-32.18111863 152.24967456 -34.07718227 151.37508625 -35.9765625 150.5078125 C-37.43642578 149.83878906 -37.43642578 149.83878906 -38.92578125 149.15625 C-41.01277573 148.06658007 -41.01277573 148.06658007 -42.2890625 148.1328125 C-41.84261866 140.54326719 -39.17405688 134.11641513 -36.2890625 127.1328125 C-35.2990625 127.4628125 -34.3090625 127.7928125 -33.2890625 128.1328125 C-33.2890625 129.4528125 -33.2890625 130.7728125 -33.2890625 132.1328125 C-32.6290625 132.4628125 -31.9690625 132.7928125 -31.2890625 133.1328125 C-30.6909375 134.0815625 -30.0928125 135.0303125 -29.4765625 136.0078125 C-26.80753968 139.82070225 -24.78992797 141.61874571 -20.1796875 142.56640625 C-14.5496974 143.33155591 -9.7735728 143.49337766 -4.6640625 140.6953125 C-0.27573532 135.96053843 1.96836503 130.03860905 1.8984375 123.5703125 C1.8365625 122.4359375 1.7746875 121.3015625 1.7109375 120.1328125 C2.0409375 119.8028125 2.3709375 119.4728125 2.7109375 119.1328125 C2.8116273 116.01841002 2.84707884 112.92614103 2.84033203 109.8112793 C2.84208435 108.83244781 2.84383667 107.85361633 2.84564209 106.84512329 C2.85006383 103.59074154 2.84712081 100.33641361 2.84375 97.08203125 C2.84442311 94.82859792 2.84539319 92.57516465 2.84664917 90.32173157 C2.84812671 85.58956209 2.84597039 80.85741144 2.84130859 76.12524414 C2.83562105 70.05542082 2.83888378 63.9856418 2.84488106 57.91582012 C2.8484935 53.25846523 2.84734476 48.60112085 2.84475327 43.94376564 C2.84408538 41.70582893 2.8449076 39.46789127 2.84723282 37.22995567 C2.84976942 34.10078784 2.84590398 30.97169178 2.84033203 27.8425293 C2.84235626 26.91405685 2.84438049 25.98558441 2.84646606 25.02897644 C2.84364624 24.17509338 2.84082642 23.32121033 2.83792114 22.44145203 C2.83754412 21.70162929 2.83716709 20.96180655 2.83677864 20.19956493 C2.77718089 18.09718232 2.77718089 18.09718232 2.14050102 15.98852253 C1.7109375 14.1328125 1.7109375 14.1328125 2.7109375 12.1328125 C2.0509375 11.8028125 1.3909375 11.4728125 0.7109375 11.1328125 C0.0509375 10.1428125 -0.6090625 9.1528125 -1.2890625 8.1328125 C-3.47411379 7.33843327 -3.47411379 7.33843327 -5.9140625 6.9453125 C-7.13996094 6.70748047 -7.13996094 6.70748047 -8.390625 6.46484375 C-9.01710938 6.35527344 -9.64359375 6.24570313 -10.2890625 6.1328125 C-10.2890625 4.4828125 -10.2890625 2.8328125 -10.2890625 1.1328125 C-6.79935542 0.34187506 -3.57553854 0.00447982 0 0 Z " fill="#C79763" transform="translate(377.2890625,62.8671875)"/>
<path d="M0 0 C1.15101196 -0.00281982 2.30202393 -0.00563965 3.48791504 -0.00854492 C4.74672989 -0.00652069 6.00554474 -0.00449646 7.30250549 -0.00241089 C8.64471992 -0.00376627 9.98693398 -0.00554698 11.32914734 -0.00772095 C14.97170128 -0.01227938 18.6142269 -0.01051212 22.25678134 -0.00734186 C26.07012429 -0.00480955 29.88346482 -0.00715828 33.69680786 -0.00872803 C40.10167374 -0.01054739 46.50652809 -0.00814975 52.91139221 -0.00338745 C60.31291073 0.0020524 67.71440169 0.00029359 75.11591953 -0.00521386 C81.47271601 -0.00975438 87.82950419 -0.01039085 94.18630177 -0.00777519 C97.98198814 -0.0062173 101.77766156 -0.00600526 105.57334709 -0.00931168 C109.14298286 -0.01220394 112.71258317 -0.01018976 116.28221512 -0.00441742 C118.21471356 -0.00246793 120.147215 -0.00543237 122.07971191 -0.00854492 C123.2335437 -0.0057251 124.38737549 -0.00290527 125.57617188 0 C126.57665275 0.00037703 127.57713362 0.00075405 128.60793209 0.0011425 C131.28840326 0.12408606 133.74031406 0.52628925 136.35157776 1.12698364 C135.60157776 8.87698364 135.60157776 8.87698364 133.35157776 11.12698364 C130.92743015 11.37587261 130.92743015 11.37587261 127.8163147 11.3742218 C126.63991928 11.37841629 125.46352386 11.38261078 124.2514801 11.38693237 C122.9542804 11.38131287 121.65708069 11.37569336 120.3205719 11.36990356 C118.94585072 11.37097607 117.57112999 11.37291427 116.19641113 11.37565613 C112.45673354 11.38051319 108.71717486 11.37283775 104.97751164 11.36270308 C101.06846449 11.35393454 97.1594212 11.35567981 93.25036621 11.35606384 C86.68390406 11.35512652 80.11748805 11.34643417 73.55104065 11.33279419 C65.95525292 11.31707449 58.35951576 11.31179583 50.76371294 11.31252974 C43.46373928 11.31313987 36.16378211 11.30803543 28.8638134 11.29973793 C25.75422983 11.2962041 22.64465209 11.29437453 19.5350666 11.29384422 C15.87353091 11.29284052 12.21203778 11.28674162 8.55051613 11.27667809 C6.56274985 11.27235767 4.57497484 11.27292508 2.58720398 11.27362061 C1.40798874 11.26935562 0.2287735 11.26509064 -0.98617554 11.26069641 C-2.52674323 11.25818264 -2.52674323 11.25818264 -4.09843349 11.2556181 C-6.64842224 11.12698364 -6.64842224 11.12698364 -9.64842224 10.12698364 C-9.64842224 7.15698364 -9.64842224 4.18698364 -9.64842224 1.12698364 C-6.12742483 0.24673429 -3.5783502 0.00134899 0 0 Z " fill="#C89864" transform="translate(243.64842224121094,17.873016357421875)"/>
<path d="M0 0 C1.91169166 2.53103021 2.98743865 4.0830213 3.03125 7.28125 C1.77665346 12.52103553 0.38583232 15.55398889 -4 19 C-6.3125 20.3125 -6.3125 20.3125 -8 21 C-8.34751105 24.07514427 -8.34751105 24.07514427 -6.1875 25.875 C-5.465625 26.57625 -4.74375 27.2775 -4 28 C-2.98812105 29.65948148 -1.9873454 31.32580562 -1 33 C-0.505 33.495 -0.01 33.99 0.5 34.5 C2.43496604 36.43496604 3.59533504 38.65889173 5 41 C6.33378575 42.8354799 6.33378575 42.8354799 8 44 C9.32 44 10.64 44 12 44 C12.33 44.99 12.66 45.98 13 47 C8.86763795 49.00356948 5.57438521 49.4901127 1 49 C-1.75 47.1875 -1.75 47.1875 -4 45 C-4.5775 44.484375 -5.155 43.96875 -5.75 43.4375 C-7 42 -7 42 -8 39 C-8.44472656 38.55785156 -8.88945312 38.11570312 -9.34765625 37.66015625 C-12.25507798 34.73898784 -14.08958798 31.02357998 -16.18359375 27.49609375 C-17.97837677 24.62742046 -17.97837677 24.62742046 -22 23 C-22 29.93 -22 36.86 -22 44 C-20.35 44.66 -18.7 45.32 -17 46 C-17.66 46.99 -18.32 47.98 -19 49 C-20.87939453 49.34057617 -20.87939453 49.34057617 -23.1328125 49.29296875 C-23.93847656 49.28330078 -24.74414062 49.27363281 -25.57421875 49.26367188 C-26.41597656 49.23853516 -27.25773437 49.21339844 -28.125 49.1875 C-29.39923828 49.16719727 -29.39923828 49.16719727 -30.69921875 49.14648438 C-32.79974837 49.11108219 -34.89995293 49.05727401 -37 49 C-37.495 47.515 -37.495 47.515 -38 46 C-36.35 45.34 -34.7 44.68 -33 44 C-33 29.81 -33 15.62 -33 1 C-34.98 0.01 -36.96 -0.98 -39 -2 C-31.38568239 -9.61431761 -7.6604817 -6.07141896 0 0 Z M-23 -1 C-22.67 -0.34 -22.34 0.32 -22 1 C-21.92805131 3.88370333 -21.90708292 6.74239664 -21.9375 9.625 C-21.94201172 10.42679687 -21.94652344 11.22859375 -21.95117188 12.0546875 C-21.96296832 14.03649006 -21.98090395 16.01825433 -22 18 C-19.03 18.33 -16.06 18.66 -13 19 C-12.67 18.34 -12.34 17.68 -12 17 C-10.68 16.67 -9.36 16.34 -8 16 C-8 11.38 -8 6.76 -8 2 C-11.25346636 1.18663341 -14.45249731 0.52633977 -17.75 -0.0625 C-18.73484375 -0.23910156 -19.7196875 -0.41570312 -20.734375 -0.59765625 C-21.85585938 -0.79681641 -21.85585938 -0.79681641 -23 -1 Z " fill="#CA9C6A" transform="translate(413,266)"/>
<path d="M0 0 C3.31242312 -0.0588996 6.62470851 -0.09389398 9.9375 -0.125 C11.32678711 -0.15013672 11.32678711 -0.15013672 12.74414062 -0.17578125 C21.16782473 -0.23489482 29.43282104 0.1964465 36 6 C38.63955452 9.64398677 40.08493128 12.58447873 39.8125 17.125 C37.14673361 21.35345704 33.38638808 23.69223612 29 26 C28.34 26 27.68 26 27 26 C29.06159761 29.49465936 31.21234212 32.89878187 33.5 36.25 C34.38171875 37.55710937 34.38171875 37.55710937 35.28125 38.890625 C36.90270104 41.2651781 36.90270104 41.2651781 40 42 C40.309375 42.804375 40.61875 43.60875 40.9375 44.4375 C42.21307357 47.51388332 43.03392444 47.74166491 46 49 C46.99 49.99 47.98 50.98 49 52 C42.565 52.495 42.565 52.495 36 53 C36 52.34 36 51.68 36 51 C35.071875 50.566875 35.071875 50.566875 34.125 50.125 C30.12945781 48.00971296 28.479685 44.62484341 26.21875 40.875 C24.73124994 38.58653837 22.92328315 36.92793266 20.9375 35.0625 C19 33 19 33 18 30 C16.35 29.34 14.7 28.68 13 28 C13.33 35.26 13.66 42.52 14 50 C15.98 49.505 15.98 49.505 18 49 C18 50.32 18 51.64 18 53 C11.75020145 54.78161678 5.31613149 54.29561672 -1 53 C-1 51.68 -1 50.36 -1 49 C0.65 49.33 2.3 49.66 4 50 C3.9292627 49.44852295 3.85852539 48.8970459 3.78564453 48.32885742 C2.90084758 40.65102801 2.85144587 33.03432803 2.875 25.3125 C2.87113281 24.03310547 2.86726562 22.75371094 2.86328125 21.43554688 C2.86457031 20.19482422 2.86585938 18.95410156 2.8671875 17.67578125 C2.86887939 16.0038269 2.86887939 16.0038269 2.87060547 14.2980957 C3.00749803 10.80888507 3.45031271 7.44632642 4 4 C2.35 3.67 0.7 3.34 -1 3 C-0.67 2.01 -0.34 1.02 0 0 Z M15 4 C15 4.66 15 5.32 15 6 C14.34 6 13.68 6 13 6 C13 6.804375 13 7.60875 13 8.4375 C13 13.29166667 13 18.14583333 13 23 C21.04330368 23.2917104 21.04330368 23.2917104 27.875 19.375 C29.55137356 15.83598916 28.96777796 12.7255813 28 9 C27.34 7.68 26.68 6.36 26 5 C22.7 5.33 19.4 5.66 16 6 C15.67 5.34 15.34 4.68 15 4 Z " fill="#CB9C69" transform="translate(140,261)"/>
<path d="M0 0 C0 0.66 0 1.32 0 2 C0.886875 2.2475 1.77375 2.495 2.6875 2.75 C10.18552608 5.5794438 13.6238406 10.99497466 17 18 C19.83614847 25.59086796 18.6530263 31.49735572 16 39 C15.34 39 14.68 39 14 39 C13.7215625 40.051875 13.7215625 40.051875 13.4375 41.125 C11.44891481 45.10217038 8.54994055 47.39623599 5 50 C4.29101562 50.54011719 3.58203125 51.08023438 2.8515625 51.63671875 C-1.17286376 53.56072528 -4.90253795 53.56567784 -9.3125 53.6875 C-10.14845703 53.72166016 -10.98441406 53.75582031 -11.84570312 53.79101562 C-13.89667772 53.87305461 -15.94831538 53.9382151 -18 54 C-18 53.34 -18 52.68 -18 52 C-18.99 52.020625 -19.98 52.04125 -21 52.0625 C-25.78446713 51.33611329 -28.17001515 48.42321381 -31.125 44.79296875 C-35.38256211 38.45097519 -38.89082094 31.46595593 -37.5625 23.6875 C-35.3328605 15.92785065 -31.77781561 8.02927262 -24.5625 3.875 C-23.64791016 3.39933594 -23.64791016 3.39933594 -22.71484375 2.9140625 C-20.82684291 1.96084355 -20.82684291 1.96084355 -18.625 0.25 C-12.89439189 -2.47886101 -6.07321089 -1.03373802 0 0 Z M-6.64453125 3.91796875 C-7.68996094 4.00691406 -8.73539062 4.09585937 -9.8125 4.1875 C-10.85019531 4.26355469 -11.88789063 4.33960938 -12.95703125 4.41796875 C-16.93384878 5.17861806 -19.78808427 6.4637186 -22.328125 9.68359375 C-26.80715558 18.20513922 -27.62964103 27.68811732 -24.75 37 C-22.88618326 41.73322763 -20.65355112 44.89763259 -16.375 47.75 C-12.04760405 49.35273924 -7.63683839 50.36711629 -3 50 C-1.36321532 48.60803192 -1.36321532 48.60803192 0 47 C1.485 46.505 1.485 46.505 3 46 C7.31111506 38.40948972 7.96639534 27.43460265 6.1875 19.0625 C5.80848459 17.70353028 5.41414029 16.34868054 5 15 C4.731875 13.88625 4.46375 12.7725 4.1875 11.625 C2.70551431 8.34903163 1.16306429 7.58153214 -2 6 C-3.84063301 3.70280466 -3.84063301 3.70280466 -6.64453125 3.91796875 Z " fill="#C6955F" transform="translate(344,261)"/>
<path d="M0 0 C1.34440248 -0.02074045 2.68880354 -0.04157295 4.03320312 -0.0625 C5.94069336 -0.07023437 5.94069336 -0.07023437 7.88671875 -0.078125 C9.04776123 -0.0874707 10.20880371 -0.09681641 11.4050293 -0.10644531 C14.3125 0.25 14.3125 0.25 16.19580078 1.60180664 C17.85288804 4.04758628 17.60277423 6.0255636 17.5 8.9375 C17.45939453 10.42830078 17.45939453 10.42830078 17.41796875 11.94921875 C17.38316406 12.70847656 17.34835938 13.46773438 17.3125 14.25 C16.3225 14.25 15.3325 14.25 14.3125 14.25 C13.6525 11.94 12.9925 9.63 12.3125 7.25 C9.8375 6.755 9.8375 6.755 7.3125 6.25 C7.3125 5.59 7.3125 4.93 7.3125 4.25 C5.7079444 4.39148989 4.10386233 4.53835686 2.5 4.6875 C1.16001953 4.80931641 1.16001953 4.80931641 -0.20703125 4.93359375 C-2.81493559 5.18489767 -2.81493559 5.18489767 -5.6875 6.25 C-5.6153125 7.15363281 -5.543125 8.05726563 -5.46875 8.98828125 C-5.3759375 10.16777344 -5.283125 11.34726562 -5.1875 12.5625 C-5.0946875 13.73425781 -5.001875 14.90601563 -4.90625 16.11328125 C-4.76385011 18.155194 -4.6875 20.2031279 -4.6875 22.25 C-0.0675 22.25 4.5525 22.25 9.3125 22.25 C9.6425 20.93 9.9725 19.61 10.3125 18.25 C10.9725 18.25 11.6325 18.25 12.3125 18.25 C14.02334699 23.76272919 14.7731443 26.78190155 12.3125 32.25 C11.6525 32.25 10.9925 32.25 10.3125 32.25 C10.11914062 31.60546875 9.92578125 30.9609375 9.7265625 30.296875 C8.42541753 27.90648799 8.42541753 27.90648799 5.2734375 27.640625 C4.09007812 27.59421875 2.90671875 27.5478125 1.6875 27.5 C-0.41625 27.4175 -2.52 27.335 -4.6875 27.25 C-4.6875 34.18 -4.6875 41.11 -4.6875 48.25 C0.5925 48.58 5.8725 48.91 11.3125 49.25 C11.8075 48.26 11.8075 48.26 12.3125 47.25 C12.9725 46.96125 13.6325 46.6725 14.3125 46.375 C14.9725 46.00375 15.6325 45.6325 16.3125 45.25 C16.67412029 43.92405895 17.00978039 42.59061543 17.3125 41.25 C18.3025 40.92 19.2925 40.59 20.3125 40.25 C20.25162884 41.64699314 20.16261115 43.0427696 20.0625 44.4375 C20.01609375 45.21480469 19.9696875 45.99210937 19.921875 46.79296875 C19.07155394 50.22150689 17.87027036 51.79703978 15.3125 54.25 C12.35585206 54.69649301 9.98987454 54.83732562 7.046875 54.73828125 C6.25347717 54.73120651 5.46007935 54.72413177 4.64263916 54.71684265 C2.11495635 54.68891048 -0.41048988 54.62617989 -2.9375 54.5625 C-4.65361378 54.53741535 -6.36976238 54.51460246 -8.0859375 54.49414062 C-12.28731671 54.43908839 -16.48702952 54.35282863 -20.6875 54.25 C-20.3575 52.93 -20.0275 51.61 -19.6875 50.25 C-18.3675 50.25 -17.0475 50.25 -15.6875 50.25 C-15.6875 35.4 -15.6875 20.55 -15.6875 5.25 C-18.1625 4.26 -18.1625 4.26 -20.6875 3.25 C-20.6875 2.59 -20.6875 1.93 -20.6875 1.25 C-13.79442488 -0.05524409 -6.99490481 0.0273372 0 0 Z " fill="#C89762" transform="translate(220.6875,260.75)"/>
<path d="M0 0 C0.73668915 -0.0033284 1.4733783 -0.0066568 2.23239136 -0.01008606 C3.78040955 -0.01512255 5.32843847 -0.01749541 6.87646484 -0.01733398 C9.24204219 -0.01953112 11.60716055 -0.03775002 13.97265625 -0.05664062 C15.48176925 -0.05957314 16.99088445 -0.06155888 18.5 -0.0625 C19.55636154 -0.07327827 19.55636154 -0.07327827 20.63406372 -0.08427429 C24.61401969 -0.0657506 26.43636944 0.32755972 30.1171875 2.16796875 C30.1171875 6.12796875 30.1171875 10.08796875 30.1171875 14.16796875 C29.1271875 14.16796875 28.1371875 14.16796875 27.1171875 14.16796875 C26.94445312 13.60207031 26.77171875 13.03617187 26.59375 12.453125 C25.6690739 9.81089012 25.6690739 9.81089012 23.1171875 6.16796875 C19.8171875 5.83796875 16.5171875 5.50796875 13.1171875 5.16796875 C13.1171875 19.68796875 13.1171875 34.20796875 13.1171875 49.16796875 C14.7671875 49.82796875 16.4171875 50.48796875 18.1171875 51.16796875 C17.6221875 52.15796875 17.6221875 52.15796875 17.1171875 53.16796875 C10.39799428 54.32645034 3.80484134 54.78921817 -2.8828125 53.16796875 C-2.8828125 52.17796875 -2.8828125 51.18796875 -2.8828125 50.16796875 C-1.2328125 50.16796875 0.4171875 50.16796875 2.1171875 50.16796875 C2.10933228 48.92261353 2.10933228 48.92261353 2.10131836 47.65209961 C1.93446372 17.20640727 1.93446372 17.20640727 3.1171875 5.16796875 C1.34543931 5.25520253 -0.42528627 5.3633853 -2.1953125 5.48046875 C-3.67451172 5.56748047 -3.67451172 5.56748047 -5.18359375 5.65625 C-8.17635156 6.22361798 -9.08341565 6.76877295 -10.8828125 9.16796875 C-12.07309234 11.76712413 -12.07309234 11.76712413 -12.8828125 14.16796875 C-13.5428125 14.16796875 -14.2028125 14.16796875 -14.8828125 14.16796875 C-16.39685062 9.32304678 -15.24883422 5.90886765 -13.8828125 1.16796875 C-9.23448795 0.26048182 -4.72133948 0.00750368 0 0 Z " fill="#C28C52" transform="translate(445.8828125,260.83203125)"/>
<path d="M0 0 C15.56248866 -0.59015055 15.56248866 -0.59015055 22 3 C23.89686157 5.88322959 24.06043314 7.33523546 23.75 10.75 C23 13 23 13 21 14 C20.62875 12.88625 20.2575 11.7725 19.875 10.625 C18.61803413 7.74445322 18.24886378 7.13628254 15.375 5.5625 C7.611771 4.16160965 7.611771 4.16160965 0.4375 6.625 C-1.41549639 9.68647229 -1.5244772 11.4785102 -1 15 C1.15016155 17.73165177 3.28543788 18.66712975 6.5625 19.6875 C7.34753906 19.93886719 8.13257813 20.19023437 8.94140625 20.44921875 C10.96684026 21.08615373 10.96684026 21.08615373 13 21 C13 21.66 13 22.32 13 23 C13.62648438 23.12117188 14.25296875 23.24234375 14.8984375 23.3671875 C15.71570313 23.53476562 16.53296875 23.70234375 17.375 23.875 C18.59316406 24.11863281 18.59316406 24.11863281 19.8359375 24.3671875 C22 25 22 25 24 27 C24.495 28.485 24.495 28.485 25 30 C25.66 30.33 26.32 30.66 27 31 C28.17311182 34.98858018 28.3685803 38.87190065 28 43 C26.1875 45.75 26.1875 45.75 24 48 C23.54625 48.556875 23.0925 49.11375 22.625 49.6875 C18.29499088 53.18481506 12.43069443 53.51168646 7.0625 53.875 C6.35609375 53.92325928 5.6496875 53.97151855 4.921875 54.02124023 C-0.66628681 54.26552792 -3.72867276 53.52384497 -8 50 C-8 46.37 -8 42.74 -8 39 C-7.34 39 -6.68 39 -6 39 C-5.814375 40.2065625 -5.814375 40.2065625 -5.625 41.4375 C-5.41875 42.283125 -5.2125 43.12875 -5 44 C-4.34 44.33 -3.68 44.66 -3 45 C-2 46 -1 47 0 48 C3.94391436 49.97195718 8.69980343 49.43892539 13 49 C15.79504081 47.70558862 15.79504081 47.70558862 17 45 C18.00504009 41.01252386 18.68884561 36.86021854 17 33 C14.8026074 31.77093094 14.8026074 31.77093094 12.0625 31 C11.07636719 30.67257812 10.09023438 30.34515625 9.07421875 30.0078125 C8.05972656 29.67523438 7.04523438 29.34265625 6 29 C4.11825823 28.30977611 2.24259458 27.60263425 0.375 26.875 C-0.44226563 26.56304687 -1.25953125 26.25109375 -2.1015625 25.9296875 C-4 25 -4 25 -5 23 C-5.66 22.67 -6.32 22.34 -7 22 C-9.41880868 17.69989567 -10.13581045 12.79564414 -9 8 C-7.01253272 5.45728729 -4.79330426 3.61152169 -2 2 C-1.34 2 -0.68 2 0 2 C0 1.34 0 0.68 0 0 Z " fill="#C6945E" transform="translate(266,261)"/>
<path d="M0 0 C2.69082872 0.17635452 5.32851446 0.61835921 8 1 C8 1.66 8 2.32 8 3 C9.3303125 3.37125 9.3303125 3.37125 10.6875 3.75 C18.18552608 6.5794438 21.6238406 11.99497466 25 19 C27.83614847 26.59086796 26.6530263 32.49735572 24 40 C23.34 40 22.68 40 22 40 C21.814375 40.70125 21.62875 41.4025 21.4375 42.125 C18.73894828 47.52210343 13.3464698 51.35775913 8 54 C4.66796875 54.29296875 4.66796875 54.29296875 1.1875 54.1875 C-0.55466797 54.14689453 -0.55466797 54.14689453 -2.33203125 54.10546875 C-3.21246094 54.07066406 -4.09289062 54.03585937 -5 54 C-5 53.34 -5 52.68 -5 52 C-4.39671875 51.89042969 -3.7934375 51.78085937 -3.171875 51.66796875 C2.92086866 50.46168115 2.92086866 50.46168115 8 47 C8.99 46.505 8.99 46.505 10 46 C14.57146396 36.49135496 15.075339 26.03531673 12 16 C11.731875 14.865625 11.46375 13.73125 11.1875 12.5625 C10.20931294 9.77030613 10.20931294 9.77030613 7.375 8.625 C6.59125 8.41875 5.8075 8.2125 5 8 C5 7.34 5 6.68 5 6 C0.71 5.34 -3.58 4.68 -8 4 C-8 3.34 -8 2.68 -8 2 C-6.865625 1.855625 -5.73125 1.71125 -4.5625 1.5625 C-1.19222799 1.38828522 -1.19222799 1.38828522 0 0 Z " fill="#CC9D6C" transform="translate(336,260)"/>
<path d="M0 0 C0.99 -0.33 1.98 -0.66 3 -1 C3 -0.34 3 0.32 3 1 C1.02 1.66 -0.96 2.32 -3 3 C-0.93840239 6.49465936 1.21234212 9.89878187 3.5 13.25 C4.0878125 14.12140625 4.675625 14.9928125 5.28125 15.890625 C6.90270104 18.2651781 6.90270104 18.2651781 10 19 C10.4640625 20.2065625 10.4640625 20.2065625 10.9375 21.4375 C12.21307357 24.51388332 13.03392444 24.74166491 16 26 C16.99 26.99 17.98 27.98 19 29 C12.565 29.495 12.565 29.495 6 30 C6 29.34 6 28.68 6 28 C5.38125 27.71125 4.7625 27.4225 4.125 27.125 C0.12945781 25.00971296 -1.520315 21.62484341 -3.78125 17.875 C-4.9933611 15.86830276 -4.9933611 15.86830276 -7 14 C-10 9.38461538 -10 9.38461538 -10 7 C-9.01 6.01 -8.02 5.02 -7 4 C-10.3 3.67 -13.6 3.34 -17 3 C-17 2.67 -17 2.34 -17 2 C-14.91952703 1.4678559 -12.83547707 0.94968214 -10.75 0.4375 C-9.58984375 0.14746094 -8.4296875 -0.14257812 -7.234375 -0.44140625 C-4.17848243 -0.96917514 -2.86156336 -0.85467047 0 0 Z " fill="#C5915A" transform="translate(170,284)"/>
<path d="M0 0 C5.66696677 -0.87184104 8.75356018 1.42569953 13.2421875 4.4921875 C14.11230469 5.23855469 14.11230469 5.23855469 15 6 C15 6.66 15 7.32 15 8 C15.66 8.66 16.32 9.32 17 10 C17.33 10.680625 17.66 11.36125 18 12.0625 C18.84589942 14.16865601 18.84589942 14.16865601 21 15 C22.0064275 16.66279327 23.00585407 18.32983484 24 20 C25.33378575 21.8354799 25.33378575 21.8354799 27 23 C28.32 23 29.64 23 31 23 C31.33 23.99 31.66 24.98 32 26 C27.86763795 28.00356948 24.57438521 28.4901127 20 28 C17.25 26.1875 17.25 26.1875 15 24 C14.4225 23.484375 13.845 22.96875 13.25 22.4375 C12 21 12 21 11 18 C10.2575 17.319375 10.2575 17.319375 9.5 16.625 C8 15 8 15 7.62890625 12.6953125 C6.87260592 9.45402538 5.55278712 7.79689116 3.4375 5.25 C0 1.07243461 0 1.07243461 0 0 Z " fill="#C6945F" transform="translate(394,287)"/>
<path d="M0 0 C0.73668915 -0.0033284 1.4733783 -0.0066568 2.23239136 -0.01008606 C3.78040955 -0.01512255 5.32843847 -0.01749541 6.87646484 -0.01733398 C9.24204219 -0.01953112 11.60716055 -0.03775002 13.97265625 -0.05664062 C15.48176925 -0.05957314 16.99088445 -0.06155888 18.5 -0.0625 C19.55636154 -0.07327827 19.55636154 -0.07327827 20.63406372 -0.08427429 C24.61401969 -0.0657506 26.43636944 0.32755972 30.1171875 2.16796875 C30.1171875 6.12796875 30.1171875 10.08796875 30.1171875 14.16796875 C29.1271875 14.16796875 28.1371875 14.16796875 27.1171875 14.16796875 C26.94445312 13.60207031 26.77171875 13.03617187 26.59375 12.453125 C25.6690739 9.81089012 25.6690739 9.81089012 23.1171875 6.16796875 C19.8171875 5.83796875 16.5171875 5.50796875 13.1171875 5.16796875 C13.1171875 19.68796875 13.1171875 34.20796875 13.1171875 49.16796875 C14.7671875 49.82796875 16.4171875 50.48796875 18.1171875 51.16796875 C17.6221875 52.15796875 17.6221875 52.15796875 17.1171875 53.16796875 C10.39799428 54.32645034 3.80484134 54.78921817 -2.8828125 53.16796875 C-2.8828125 52.17796875 -2.8828125 51.18796875 -2.8828125 50.16796875 C-0.96223958 50.20052083 0.95833333 50.23307292 2.87890625 50.265625 C5.60006582 50.20415572 5.60006582 50.20415572 10.1171875 49.16796875 C10.4471875 33.98796875 10.7771875 18.80796875 11.1171875 3.16796875 C19.1171875 3.16796875 19.1171875 3.16796875 21.1171875 4.16796875 C21.1171875 3.50796875 21.1171875 2.84796875 21.1171875 2.16796875 C17.077838 2.18744194 13.04030083 2.23931369 9.00170898 2.32055664 C7.62943319 2.34367853 6.25698141 2.35811878 4.88452148 2.36352539 C2.90584279 2.3728554 0.92742126 2.41653894 -1.05078125 2.4609375 C-2.23953857 2.47664795 -3.4282959 2.4923584 -4.65307617 2.50854492 C-8.76723049 3.34854272 -10.24043577 4.97957467 -12.8828125 8.16796875 C-14.17801245 10.33417419 -14.17801245 10.33417419 -14.8828125 12.16796875 C-16.29968369 7.91735519 -15.07601289 5.4494525 -13.8828125 1.16796875 C-9.23448795 0.26048182 -4.72133948 0.00750368 0 0 Z " fill="#DBB994" transform="translate(445.8828125,260.83203125)"/>
<path d="M0 0 C0.91007812 -0.01224609 1.82015625 -0.02449219 2.7578125 -0.03710938 C3.62664062 -0.03904297 4.49546875 -0.04097656 5.390625 -0.04296875 C6.17985352 -0.04707764 6.96908203 -0.05118652 7.78222656 -0.05541992 C9.75 0.1875 9.75 0.1875 11.75 2.1875 C0.86 2.6825 0.86 2.6825 -10.25 3.1875 C-9.92 3.8475 -9.59 4.5075 -9.25 5.1875 C-9.15587539 6.56582271 -9.12206434 7.94854607 -9.12060547 9.33007812 C-9.11745331 10.18436401 -9.11430115 11.0386499 -9.11105347 11.91882324 C-9.1130777 12.84279907 -9.11510193 13.7667749 -9.1171875 14.71875 C-9.11623077 15.66560669 -9.11527405 16.61246338 -9.11428833 17.5880127 C-9.11360714 19.59204169 -9.1154572 21.59607289 -9.11962891 23.60009766 C-9.124978 26.6748549 -9.11968186 29.74946607 -9.11328125 32.82421875 C-9.11394204 34.76822949 -9.11522323 36.71224014 -9.1171875 38.65625 C-9.11516327 39.58022583 -9.11313904 40.50420166 -9.11105347 41.45617676 C-9.11420563 42.31046265 -9.11735779 43.16474854 -9.12060547 44.04492188 C-9.12179886 45.175047 -9.12179886 45.175047 -9.12301636 46.32800293 C-9.25 48.1875 -9.25 48.1875 -10.25 50.1875 C-7.94 50.1875 -5.63 50.1875 -3.25 50.1875 C-2.92 49.5275 -2.59 48.8675 -2.25 48.1875 C-0.27 49.1775 1.71 50.1675 3.75 51.1875 C3.09 52.1775 2.43 53.1675 1.75 54.1875 C-0.12939453 54.52807617 -0.12939453 54.52807617 -2.3828125 54.48046875 C-3.18847656 54.47080078 -3.99414062 54.46113281 -4.82421875 54.45117188 C-5.66597656 54.42603516 -6.50773437 54.40089844 -7.375 54.375 C-8.64923828 54.35469727 -8.64923828 54.35469727 -9.94921875 54.33398438 C-12.04974837 54.29858219 -14.14995293 54.24477401 -16.25 54.1875 C-16.745 52.7025 -16.745 52.7025 -17.25 51.1875 C-15.6 50.5275 -13.95 49.8675 -12.25 49.1875 C-12.25 34.9975 -12.25 20.8075 -12.25 6.1875 C-14.23 5.1975 -16.21 4.2075 -18.25 3.1875 C-13.83394432 -1.22855568 -5.90381699 0.00425347 0 0 Z " fill="#CC9F6E" transform="translate(392.25,260.8125)"/>
<path d="M0 0 C3 1 3 1 4.625 4 C7.93401715 12.61463243 7.00255348 21.99204131 6.70504761 31.03689575 C5.98998049 53.03986253 5.72474634 75.05087772 5.4375 97.0625 C5.41524252 98.753581 5.39296475 100.44466173 5.3706665 102.13574219 C5.24403152 111.75712312 5.12042784 121.37853936 5 131 C4.34 130.67 3.68 130.34 3 130 C2.97680865 119.93369218 2.95905027 109.86739074 2.94818783 99.80106163 C2.94297387 95.12664215 2.93590322 90.45224098 2.92456055 85.77783203 C2.91367883 81.26503953 2.90771195 76.75226461 2.90512276 72.23945999 C2.90327804 70.51952462 2.89967577 68.79959019 2.89426994 67.07966232 C2.88698938 64.66685674 2.88601202 62.25412343 2.88647461 59.84130859 C2.88287933 59.13352264 2.87928406 58.42573669 2.87557983 57.69650269 C2.88387143 53.68810878 3.26868646 49.93701896 4 46 C4.01429641 44.4110099 3.97527991 42.82050426 3.87890625 41.234375 C3.83072754 40.35265625 3.78254883 39.4709375 3.73291016 38.5625 C3.6766748 37.634375 3.62043945 36.70625 3.5625 35.75 C3.11741626 27.75185862 2.89065803 19.81895141 3.21313477 11.81152344 C3.31538108 7.09366632 2.41292627 4.04259898 0 0 Z " fill="#E6D1B7" transform="translate(32,71)"/>
<path d="M0 0 C0 0.66 0 1.32 0 2 C0.66 2.33 1.32 2.66 2 3 C0.95199219 2.96519531 -0.09601562 2.93039063 -1.17578125 2.89453125 C-2.55467147 2.86639063 -3.93357902 2.83909076 -5.3125 2.8125 C-6.00279297 2.78736328 -6.69308594 2.76222656 -7.40429688 2.73632812 C-11.39871073 2.60633051 -11.39871073 2.60633051 -14.79296875 4.44921875 C-15.19128906 4.96097656 -15.58960938 5.47273438 -16 6 C-16.99 6.33 -17.98 6.66 -19 7 C-17.68 7.33 -16.36 7.66 -15 8 C-15 8.66 -15 9.32 -15 10 C-16.12148438 9.96519531 -16.12148438 9.96519531 -17.265625 9.9296875 C-18.25046875 9.91164063 -19.2353125 9.89359375 -20.25 9.875 C-21.22453125 9.85179688 -22.1990625 9.82859375 -23.203125 9.8046875 C-26.05709029 10.00398675 -27.52279759 10.67597802 -30 12 C-32.75 11.625 -32.75 11.625 -35 11 C-33.68 10.34 -32.36 9.68 -31 9 C-31 7.68 -31 6.36 -31 5 C-31.66 4.34 -32.32 3.68 -33 3 C-23.11321681 -2.57897051 -10.8528204 -1.03094828 0 0 Z " fill="#D0A779" transform="translate(530,58)"/>
<path d="M0 0 C-0.06087116 1.39699314 -0.14988885 2.7927696 -0.25 4.1875 C-0.29640625 4.96480469 -0.3428125 5.74210937 -0.390625 6.54296875 C-1.24094606 9.97150689 -2.44222964 11.54703978 -5 14 C-7.95664794 14.44649301 -10.32262546 14.58732562 -13.265625 14.48828125 C-14.05902283 14.48120651 -14.85242065 14.47413177 -15.66986084 14.46684265 C-18.19754365 14.43891048 -20.72298988 14.37617989 -23.25 14.3125 C-24.96611378 14.28741535 -26.68226238 14.26460246 -28.3984375 14.24414062 C-32.59981671 14.18908839 -36.79952952 14.10282863 -41 14 C-40.67 12.68 -40.34 11.36 -40 10 C-39.18660156 10.01160156 -38.37320313 10.02320313 -37.53515625 10.03515625 C-27.98260998 10.11037315 -18.52718005 9.64591051 -9 9 C-8.67 8.34 -8.34 7.68 -8 7 C-7.34 6.71125 -6.68 6.4225 -6 6.125 C-3.79785514 5.18991809 -3.79785514 5.18991809 -3.375 2.9375 C-3.189375 1.9784375 -3.189375 1.9784375 -3 1 C-1 0 -1 0 0 0 Z " fill="#D2A678" transform="translate(241,301)"/>
<path d="M0 0 C0.66 0 1.32 0 2 0 C4.08326871 2.30647608 5.03584437 4.00890323 4.921875 7.16015625 C3.95891033 12.50104362 2.37469311 15.56274112 -2 19 C-4.1875 20.1875 -4.1875 20.1875 -6 21 C-6.66 21.66 -7.32 22.32 -8 23 C-8.28875 22.38125 -8.5775 21.7625 -8.875 21.125 C-9.93720042 18.86674235 -9.93720042 18.86674235 -12 17 C-10.35 16.67 -8.7 16.34 -7 16 C-6.67 12.37 -6.34 8.74 -6 5 C-4.68 4.67 -3.36 4.34 -2 4 C-0.71563266 2.0162233 -0.71563266 2.0162233 0 0 Z " fill="#CB9F6F" transform="translate(411,266)"/>
<path d="M0 0 C0.66 0 1.32 0 2 0 C2.185625 1.2065625 2.185625 1.2065625 2.375 2.4375 C2.58125 3.283125 2.7875 4.12875 3 5 C3.66 5.33 4.32 5.66 5 6 C6 7 7 8 8 9 C11.94157243 10.97078622 16.70532775 10.46141107 21 10 C23.59256946 8.90983829 25.63799987 7.55791498 28 6 C28.66 6.33 29.32 6.66 30 7 C29.67 8.65 29.34 10.3 29 12 C24.38371482 13.74280969 19.96196421 14.54340961 15.0625 14.875 C14.35609375 14.92325928 13.6496875 14.97151855 12.921875 15.02124023 C7.33371319 15.26552792 4.27132724 14.52384497 0 11 C0 7.37 0 3.74 0 0 Z " fill="#C7945E" transform="translate(258,300)"/>
<path d="M0 0 C0.73668915 -0.0033284 1.4733783 -0.0066568 2.23239136 -0.01008606 C3.78040955 -0.01512255 5.32843847 -0.01749541 6.87646484 -0.01733398 C9.24204219 -0.01953112 11.60716055 -0.03775002 13.97265625 -0.05664062 C15.48176925 -0.05957314 16.99088445 -0.06155888 18.5 -0.0625 C19.55636154 -0.07327827 19.55636154 -0.07327827 20.63406372 -0.08427429 C24.61401969 -0.0657506 26.43636944 0.32755972 30.1171875 2.16796875 C30.1171875 6.12796875 30.1171875 10.08796875 30.1171875 14.16796875 C29.1271875 14.16796875 28.1371875 14.16796875 27.1171875 14.16796875 C26.71886719 13.31912109 26.71886719 13.31912109 26.3125 12.453125 C25.95929688 11.71964844 25.60609375 10.98617188 25.2421875 10.23046875 C24.89414062 9.49957031 24.54609375 8.76867187 24.1875 8.015625 C23.2486898 6.00464416 23.2486898 6.00464416 21.1171875 5.16796875 C21.1171875 4.17796875 21.1171875 3.18796875 21.1171875 2.16796875 C17.077838 2.18744194 13.04030083 2.23931369 9.00170898 2.32055664 C7.62943319 2.34367853 6.25698141 2.35811878 4.88452148 2.36352539 C2.90584279 2.3728554 0.92742126 2.41653894 -1.05078125 2.4609375 C-2.23953857 2.47664795 -3.4282959 2.4923584 -4.65307617 2.50854492 C-8.76723049 3.34854272 -10.24043577 4.97957467 -12.8828125 8.16796875 C-14.17801245 10.33417419 -14.17801245 10.33417419 -14.8828125 12.16796875 C-16.29968369 7.91735519 -15.07601289 5.4494525 -13.8828125 1.16796875 C-9.23448795 0.26048182 -4.72133948 0.00750368 0 0 Z " fill="#E2C4A6" transform="translate(445.8828125,260.83203125)"/>
<path d="M0 0 C0.33 0 0.66 0 1 0 C2.11564585 4.42771947 2.07496817 8.71978086 2 13.25 C1.92215053 20.3783674 2.17273877 27.41595559 2.8203125 34.51660156 C3.11199923 38.26295297 3.13384585 40.82366458 1 44 C-2.90713687 29.67383146 -3.43823461 14.48970299 0 0 Z " fill="#D7B590" transform="translate(189,119)"/>
<path d="M0 0 C0.185625 0.8971875 0.185625 0.8971875 0.375 1.8125 C0.95475985 4.26231348 0.95475985 4.26231348 3 7 C5.4157113 7.50904384 5.4157113 7.50904384 8.2265625 7.51171875 C9.2578125 7.54716797 10.2890625 7.58261719 11.3515625 7.61914062 C12.43179688 7.64169922 13.51203125 7.66425781 14.625 7.6875 C15.71296875 7.72166016 16.8009375 7.75582031 17.921875 7.79101562 C20.61448063 7.87368334 23.30675291 7.94277087 26 8 C26 7.67 26 7.34 26 7 C27.98 7 29.96 7 32 7 C32.66 8.98 33.32 10.96 34 13 C31.36 13 28.72 13 26 13 C26 12.34 26 11.68 26 11 C25.39003174 11.01571045 24.78006348 11.0314209 24.15161133 11.04760742 C21.3720029 11.11019813 18.59254308 11.14906622 15.8125 11.1875 C14.85279297 11.21263672 13.89308594 11.23777344 12.90429688 11.26367188 C3.99158681 11.35619136 3.99158681 11.35619136 0 8 C-1.4375 6.0625 -1.4375 6.0625 -2 4 C-1.125 1.75 -1.125 1.75 0 0 Z " fill="#D4AD83" transform="translate(59,200)"/>
<path d="M0 0 C2.69082872 0.17635452 5.32851446 0.61835921 8 1 C8 1.66 8 2.32 8 3 C8.886875 3.226875 9.77375 3.45375 10.6875 3.6875 C14.43380532 5.17188513 16.33729434 7.02403485 19 10 C18.401875 10.433125 17.80375 10.86625 17.1875 11.3125 C15.29216913 12.77461239 13.6471407 14.27050227 12 16 C11.6596875 14.576875 11.6596875 14.576875 11.3125 13.125 C10.30916286 9.80676612 10.30916286 9.80676612 7.375 8.625 C6.59125 8.41875 5.8075 8.2125 5 8 C5 7.34 5 6.68 5 6 C0.71 5.34 -3.58 4.68 -8 4 C-8 3.34 -8 2.68 -8 2 C-6.865625 1.855625 -5.73125 1.71125 -4.5625 1.5625 C-1.19222799 1.38828522 -1.19222799 1.38828522 0 0 Z " fill="#D2A97D" transform="translate(336,260)"/>
<path d="M0 0 C15.56248866 -0.59015055 15.56248866 -0.59015055 22 3 C23.89686157 5.88322959 24.06043314 7.33523546 23.75 10.75 C23 13 23 13 21 14 C20.62875 12.88625 20.2575 11.7725 19.875 10.625 C18.63074862 7.78673072 18.24734192 7.13875278 15.4375 5.5625 C11.60791594 4.93584079 8.03982049 4.93746325 4.171875 5.125 C2 5 2 5 0 3 C0 2.01 0 1.02 0 0 Z " fill="#C48F55" transform="translate(266,261)"/>
<path d="M0 0 C5.03723207 3.92904101 8.36646863 7.65388138 11.640625 13.14453125 C12.94779719 15.30392673 12.94779719 15.30392673 16 16 C16.4640625 17.2065625 16.4640625 17.2065625 16.9375 18.4375 C18.21307357 21.51388332 19.03392444 21.74166491 22 23 C22.99 23.99 23.98 24.98 25 26 C18.565 26.495 18.565 26.495 12 27 C12 26.34 12 25.68 12 25 C10.68 24.34 9.36 23.68 8 23 C8.33 22.34 8.66 21.68 9 21 C9.66 21.33 10.32 21.66 11 22 C11.89915146 19.80348322 11.89915146 19.80348322 12 17 C10.26035206 13.87383405 10.26035206 13.87383405 7.75 10.875 C6.94046875 9.84117187 6.1309375 8.80734375 5.296875 7.7421875 C3.1601742 5.09521789 3.1601742 5.09521789 1.203125 3.2578125 C0 2 0 2 0 0 Z " fill="#C08A50" transform="translate(164,287)"/>
<path d="M0 0 C3.96 0 7.92 0 12 0 C12 14.52 12 29.04 12 44 C11.34 44 10.68 44 10 44 C9.14692062 38.10291954 8.84252425 32.39216121 8.875 26.4375 C8.87693359 25.57286133 8.87886719 24.70822266 8.88085938 23.81738281 C8.93151887 16.1818704 9.35451314 8.60752376 10 1 C5.545 1.495 5.545 1.495 1 2 C0.67 1.34 0.34 0.68 0 0 Z " fill="#CA9A65" transform="translate(439,265)"/>
<path d="M0 0 C0.66 0 1.32 0 2 0 C3.71084699 5.51272919 4.4606443 8.53190155 2 14 C1.34 14 0.68 14 0 14 C-0.19335938 13.35546875 -0.38671875 12.7109375 -0.5859375 12.046875 C-1.88708247 9.65648799 -1.88708247 9.65648799 -5.0390625 9.390625 C-6.81410156 9.32101562 -6.81410156 9.32101562 -8.625 9.25 C-11.780625 9.12625 -11.780625 9.12625 -15 9 C-15 16.26 -15 23.52 -15 31 C-15.66 31 -16.32 31 -17 31 C-17 23.41 -17 15.82 -17 8 C-12.38 8 -7.76 8 -3 8 C-3 6.68 -3 5.36 -3 4 C-2.34 4 -1.68 4 -1 4 C-0.67 2.68 -0.34 1.36 0 0 Z " fill="#D8B38C" transform="translate(231,279)"/>
<path d="M0 0 C1.78190463 3.07453754 2.25608626 5.31200787 2.265625 8.8515625 C2.26820313 9.78613281 2.27078125 10.72070312 2.2734375 11.68359375 C2.26570313 12.65425781 2.25796875 13.62492188 2.25 14.625 C2.25773437 15.57246094 2.26546875 16.51992187 2.2734375 17.49609375 C2.2559634 23.88287609 1.48895476 29.79149957 0 36 C-0.33 36 -0.66 36 -1 36 C-1.84482114 32.39461357 -2.07522191 29.20301299 -1.9140625 25.5078125 C-1.87023437 24.47269531 -1.82640625 23.43757813 -1.78125 22.37109375 C-1.7296875 21.29988281 -1.678125 20.22867188 -1.625 19.125 C-1.58117187 18.06152344 -1.53734375 16.99804688 -1.4921875 15.90234375 C-1.2523363 10.53900442 -0.8901618 5.29570833 0 0 Z " fill="#D4AF86" transform="translate(307,125)"/>
<path d="M0 0 C-0.33 2.64 -0.66 5.28 -1 8 C-8.92 8 -16.84 8 -25 8 C-25 7.67 -25 7.34 -25 7 C-17.74 7 -10.48 7 -3 7 C-3 5.35 -3 3.7 -3 2 C-17.85 2 -32.7 2 -48 2 C-48 1.67 -48 1.34 -48 1 C-42.44990258 0.85627847 -36.89977268 0.71390858 -31.34960938 0.57275391 C-29.46418334 0.52461674 -27.57876646 0.47611973 -25.69335938 0.42724609 C-22.97267993 0.35678452 -20.25196947 0.28764638 -17.53125 0.21875 C-16.69758911 0.19687622 -15.86392822 0.17500244 -15.00500488 0.15246582 C-10.00146178 0.02728279 -5.00512365 -0.0201009 0 0 Z " fill="#BC8345" transform="translate(380,19)"/>
<path d="M0 0 C15.18 0 30.36 0 46 0 C46 0.33 46 0.66 46 1 C33.79 1.33 21.58 1.66 9 2 C11.475 5.465 11.475 5.465 14 9 C13.01 9 12.02 9 11 9 C10.34 8.01 9.68 7.02 9 6 C6.81494871 5.20562077 6.81494871 5.20562077 4.375 4.8125 C3.14910156 4.57466797 3.14910156 4.57466797 1.8984375 4.33203125 C1.27195312 4.22246094 0.64546875 4.11289063 0 4 C0 2.68 0 1.36 0 0 Z " fill="#BC8142" transform="translate(367,65)"/>
<path d="M0 0 C7.59 0 15.18 0 23 0 C23 0.33 23 0.66 23 1 C20.69 1.66 18.38 2.32 16 3 C16 3.33 16 3.66 16 4 C17.134375 4.12375 18.26875 4.2475 19.4375 4.375 C20.613125 4.58125 21.78875 4.7875 23 5 C23.33 5.66 23.66 6.32 24 7 C16.99564408 6.3741355 9.99600901 5.71325905 3 5 C4.32 4.34 5.64 3.68 7 3 C4.69 2.34 2.38 1.68 0 1 C0 0.67 0 0.34 0 0 Z " fill="#BB8141" transform="translate(62,64)"/>
<path d="M0 0 C3.84800954 0.54971565 5.35309439 2.27037858 8 5 C11.6732549 7.49256582 15.67944733 7.56794473 20 8 C19.67 8.66 19.34 9.32 19 10 C16.69 10 14.38 10 12 10 C12 10.66 12 11.32 12 12 C10.35 12.33 8.7 12.66 7 13 C7 12.34 7 11.68 7 11 C6.01 11 5.02 11 4 11 C3.896875 10.2575 3.79375 9.515 3.6875 8.75 C2.95342107 5.8136843 1.85500323 4.33891712 0 2 C0 1.34 0 0.68 0 0 Z " fill="#DAB892" transform="translate(319,302)"/>
<path d="M0 0 C10.69668949 2.71292849 18.62908871 8.97009995 26 17 C25.67 17.99 25.34 18.98 25 20 C24.34 19.67 23.68 19.34 23 19 C23 18.34 23 17.68 23 17 C22.34 17 21.68 17 21 17 C21 16.34 21 15.68 21 15 C20.360625 14.731875 19.72125 14.46375 19.0625 14.1875 C17 13 17 13 16 10 C15.01 9.67 14.02 9.34 13 9 C10.50039062 8.16679687 8.34328563 7.23858085 6 6.0625 C5.319375 5.72347656 4.63875 5.38445312 3.9375 5.03515625 C2 4 2 4 -1 2 C-0.67 1.34 -0.34 0.68 0 0 Z " fill="#D5B189" transform="translate(264,67)"/>
<path d="M0 0 C3.35409194 -0.05859857 6.70805017 -0.09379582 10.0625 -0.125 C11.47692383 -0.15013672 11.47692383 -0.15013672 12.91992188 -0.17578125 C18.36523938 -0.21372771 22.85499388 0.18747357 28 2 C24.58423991 4.09376089 22.10268567 4.17870845 18.140625 3.9765625 C16.46806641 3.89921875 16.46806641 3.89921875 14.76171875 3.8203125 C13.60285156 3.75585938 12.44398438 3.69140625 11.25 3.625 C9.48849609 3.53992188 9.48849609 3.53992188 7.69140625 3.453125 C4.79364353 3.31177072 1.89676251 3.16036781 -1 3 C-0.67 2.01 -0.34 1.02 0 0 Z " fill="#C6935D" transform="translate(140,261)"/>
<path d="M0 0 C0 0.66 0 1.32 0 2 C-2.31 2 -4.62 2 -7 2 C-7 2.66 -7 3.32 -7 4 C-6.30132812 3.97679687 -5.60265625 3.95359375 -4.8828125 3.9296875 C-3.97273438 3.91164063 -3.06265625 3.89359375 -2.125 3.875 C-0.76761719 3.84019531 -0.76761719 3.84019531 0.6171875 3.8046875 C3 4 3 4 5 6 C3.78763672 6.07347656 3.78763672 6.07347656 2.55078125 6.1484375 C1.48214844 6.22320312 0.41351563 6.29796875 -0.6875 6.375 C-2.27111328 6.47941406 -2.27111328 6.47941406 -3.88671875 6.5859375 C-6.9559086 6.9941359 -9.26648053 7.55197347 -12 9 C-12.33 9.99 -12.66 10.98 -13 12 C-14 10 -14 10 -13.375 6.5625 C-12 3 -12 3 -9.8125 1.0625 C-6.39890571 -0.22708006 -3.61968736 -0.21292279 0 0 Z " fill="#E2C7AA" transform="translate(335,260)"/>
<path d="M0 0 C0.5 2.6875 0.5 2.6875 0 6 C-2.80201165 8.47575002 -6.16508611 11 -10 11 C-10.99 14.465 -10.99 14.465 -12 18 C-12.33 18 -12.66 18 -13 18 C-12.73124573 11.54989753 -10.36586822 7.70327724 -6 3 C-2.41216216 0 -2.41216216 0 0 0 Z " fill="#C38D54" transform="translate(322,264)"/>
<path d="M0 0 C0.66 0.33 1.32 0.66 2 1 C1.67 2.65 1.34 4.3 1 6 C-4.87883349 8.61281488 -10.70731728 8.18328202 -17 8 C-16.67 7.34 -16.34 6.68 -16 6 C-14.1796875 5.5078125 -14.1796875 5.5078125 -11.875 5.125 C-8.52137756 4.46711234 -5.9776897 3.59843727 -3.0625 1.8125 C-2.051875 1.214375 -1.04125 0.61625 0 0 Z " fill="#C1894C" transform="translate(286,306)"/>
<path d="M0 0 C1.125 1.625 1.125 1.625 2 4 C1.3883803 6.01751476 0.7151275 8.01681138 0 10 C-0.48449665 16.69262323 -0.22757433 23.401788 1 30 C-1 29 -1 29 -2.0625 26.25 C-4.25760216 17.5766695 -5.19070789 9.59398066 -0.91015625 1.51171875 C-0.60980469 1.01285156 -0.30945313 0.51398438 0 0 Z " fill="#E7D1B9" transform="translate(319,270)"/>
<path d="M0 0 C0 1.32 0 2.64 0 4 C-7.26 4 -14.52 4 -22 4 C-22 3.34 -22 2.68 -22 2 C-19.64655194 1.66076424 -17.2924516 1.32849466 -14.9375 1 C-14.28072266 0.90460937 -13.62394531 0.80921875 -12.94726562 0.7109375 C-8.59861237 0.11112326 -4.38670929 -0.09127093 0 0 Z " fill="#D0A577" transform="translate(256,57)"/>
<path d="M0 0 C0 3.96 0 7.92 0 12 C-0.99 12 -1.98 12 -3 12 C-3.26554687 11.43410156 -3.53109375 10.86820312 -3.8046875 10.28515625 C-4.15789062 9.55167969 -4.51109375 8.81820313 -4.875 8.0625 C-5.22304688 7.33160156 -5.57109375 6.60070312 -5.9296875 5.84765625 C-6.8684977 3.83667541 -6.8684977 3.83667541 -9 3 C-9 2.01 -9 1.02 -9 0 C-5.32431536 -0.91892116 -3.83619425 -0.95904856 0 0 Z " fill="#CC9C6A" transform="translate(476,263)"/>
<path d="M0 0 C0 4.00129336 -1.41373017 4.99433507 -4 8 C-5.1446875 9.60875 -5.1446875 9.60875 -6.3125 11.25 C-9.55073444 14.56354222 -11.45720041 14.821851 -16 15 C-16.33 14.01 -16.66 13.02 -17 12 C-10.375 8.125 -10.375 8.125 -7 7 C-5.30911778 5.02043058 -3.64169528 3.02054804 -2 1 C-1.34 0.67 -0.68 0.34 0 0 Z " fill="#D3AB80" transform="translate(556,193)"/>
<path d="M0 0 C0.66 0 1.32 0 2 0 C2.22745015 3.37399376 2.42851745 6.74907252 2.625 10.125 C2.68945312 11.07632813 2.75390625 12.02765625 2.8203125 13.0078125 C3.10594477 18.14919328 3.12666217 22.17848347 1 27 C0.34 27 -0.32 27 -1 27 C-0.67 18.09 -0.34 9.18 0 0 Z " fill="#CDA06F" transform="translate(596,129)"/>
<path d="M0 0 C6.62230296 0.90826725 10.65408505 4.98066947 14.66015625 10.13671875 C17.17526593 13.92689795 17.17526593 13.92689795 18 16 C17.67 16.99 17.34 17.98 17 19 C16.34 19 15.68 19 15 19 C13.27735506 15.70450534 11.70554068 12.66881155 11 9 C10.34 9 9.68 9 9 9 C9 8.34 9 7.68 9 7 C8.34 6.67 7.68 6.34 7 6 C6.34 5.34 5.68 4.68 5 4 C3.01643517 3.28591666 1.01684563 2.61382258 -1 2 C-0.67 1.34 -0.34 0.68 0 0 Z " fill="#D5AF86" transform="translate(99,140)"/>
<path d="M0 0 C-3.10403365 2.06935577 -3.81900019 2.25517909 -7.34375 2.265625 C-8.17777344 2.26820313 -9.01179687 2.27078125 -9.87109375 2.2734375 C-10.73863281 2.26570312 -11.60617188 2.25796875 -12.5 2.25 C-13.80130859 2.26160156 -13.80130859 2.26160156 -15.12890625 2.2734375 C-15.96292969 2.27085937 -16.79695312 2.26828125 -17.65625 2.265625 C-18.41744141 2.26336914 -19.17863281 2.26111328 -19.96289062 2.25878906 C-22 2 -22 2 -25 0 C-16.89897051 -1.89726713 -8.14990446 -1.5162613 0 0 Z " fill="#CEA373" transform="translate(261,211)"/>
<path d="M0 0 C1.7790973 2.66864595 2.77003287 4.84004711 3.875 7.8125 C5.50053888 11.99856816 7.43664053 15.33805789 10 19 C10 19.66 10 20.32 10 21 C9.01 21.33 8.02 21.66 7 22 C5.65411674 19.44342265 4.32324672 16.88076095 3 14.3125 C2.6184375 13.59126953 2.236875 12.87003906 1.84375 12.12695312 C-1.6554221 5.28482197 -1.6554221 5.28482197 -1 1 C-0.67 0.67 -0.34 0.34 0 0 Z " fill="#DEC1A1" transform="translate(462,166)"/>
<path d="M0 0 C0.33 0 0.66 0 1 0 C1 5 1 10 1 15 C4.3 15 7.6 15 11 15 C10.67 15.66 10.34 16.32 10 17 C7.27734375 17.6328125 7.27734375 17.6328125 3.9375 18.125 C2.83277344 18.29257812 1.72804687 18.46015625 0.58984375 18.6328125 C-0.26480469 18.75398438 -1.11945313 18.87515625 -2 19 C-2.05380578 16.20807795 -2.09357669 13.4171859 -2.125 10.625 C-2.14175781 9.8309375 -2.15851563 9.036875 -2.17578125 8.21875 C-2.19335473 6.14507985 -2.10335168 4.07116759 -2 2 C-1.34 1.34 -0.68 0.68 0 0 Z " fill="#DFC1A0" transform="translate(154,268)"/>
<path d="M0 0 C0 1.32 0 2.64 0 4 C-2.64 3.67 -5.28 3.34 -8 3 C-7.41089844 3.68707031 -6.82179688 4.37414062 -6.21484375 5.08203125 C-5.46332031 5.98308594 -4.71179688 6.88414062 -3.9375 7.8125 C-3.18339844 8.70582031 -2.42929687 9.59914063 -1.65234375 10.51953125 C-1.10707031 11.33808594 -0.56179688 12.15664063 0 13 C-0.33 13.99 -0.66 14.98 -1 16 C-1.53109375 15.25234375 -2.0621875 14.5046875 -2.609375 13.734375 C-3.31578125 12.74953125 -4.0221875 11.7646875 -4.75 10.75 C-5.44609375 9.77546875 -6.1421875 8.8009375 -6.859375 7.796875 C-8.76452299 5.30766704 -10.72684621 3.15028061 -13 1 C-11.20994059 0.63779734 -9.41787943 0.28547531 -7.625 -0.0625 C-6.12839844 -0.35833984 -6.12839844 -0.35833984 -4.6015625 -0.66015625 C-2 -1 -2 -1 0 0 Z " fill="#BE8344" transform="translate(403,285)"/>
<path d="M0 0 C-0.33 0.99 -0.66 1.98 -1 3 C-0.67 3.33 -0.34 3.66 0 4 C0.07205511 5.68608966 0.08386068 7.37500659 0.0625 9.0625 C0.05347656 9.98160156 0.04445312 10.90070313 0.03515625 11.84765625 C0.02355469 12.55792969 0.01195312 13.26820313 0 14 C-0.33 14 -0.66 14 -1 14 C-1.99 10.37 -2.98 6.74 -4 3 C-7.3 3 -10.6 3 -14 3 C-14 2.34 -14 1.68 -14 1 C-12.04310963 0.63794536 -10.08442332 0.28558579 -8.125 -0.0625 C-7.03445312 -0.25972656 -5.94390625 -0.45695312 -4.8203125 -0.66015625 C-2 -1 -2 -1 0 0 Z " fill="#E5CDB3" transform="translate(170,264)"/>
<path d="M0 0 C11.88 0 23.76 0 36 0 C36 0.66 36 1.32 36 2 C28.23829679 3.13034513 20.75913255 2.9242661 12.9375 2.5625 C11.69033203 2.51029297 10.44316406 2.45808594 9.15820312 2.40429688 C6.10515269 2.27562425 3.0525154 2.14070861 0 2 C0 1.34 0 0.68 0 0 Z " fill="#CFA271" transform="translate(292,18)"/>
<path d="M0 0 C0 0.66 0 1.32 0 2 C-5.10334017 3.905247 -9.46342706 5.42589023 -15 5 C-15.33 4.01 -15.66 3.02 -16 2 C-13.89829344 1.46932659 -11.79352402 0.95077143 -9.6875 0.4375 C-7.92986328 0.00244141 -7.92986328 0.00244141 -6.13671875 -0.44140625 C-3 -1 -3 -1 0 0 Z " fill="#DFC2A3" transform="translate(539,207)"/>
<path d="M0 0 C0.91007812 -0.01224609 1.82015625 -0.02449219 2.7578125 -0.03710938 C3.62664062 -0.03904297 4.49546875 -0.04097656 5.390625 -0.04296875 C6.17985352 -0.04707764 6.96908203 -0.05118652 7.78222656 -0.05541992 C9.75 0.1875 9.75 0.1875 11.75 2.1875 C10.76604248 2.20937378 10.76604248 2.20937378 9.76220703 2.23168945 C6.79919969 2.30601414 3.83733883 2.40272369 0.875 2.5 C-0.15753906 2.52255859 -1.19007813 2.54511719 -2.25390625 2.56835938 C-3.73310547 2.6215332 -3.73310547 2.6215332 -5.2421875 2.67578125 C-6.15339355 2.70196533 -7.06459961 2.72814941 -8.00341797 2.75512695 C-8.74479004 2.89781006 -9.48616211 3.04049316 -10.25 3.1875 C-11.24 4.6725 -11.24 4.6725 -12.25 6.1875 C-14.23 5.1975 -16.21 4.2075 -18.25 3.1875 C-13.83394432 -1.22855568 -5.90381699 0.00425347 0 0 Z " fill="#E1C3A4" transform="translate(392.25,260.8125)"/>
<path d="M0 0 C0.58007812 0.13277344 1.16015625 0.26554688 1.7578125 0.40234375 C6.15770982 1.39704001 10.53894158 2.31368332 15 3 C14.67 3.99 14.34 4.98 14 6 C12.41590006 5.88512252 10.83271037 5.75765492 9.25 5.625 C8.36828125 5.55539063 7.4865625 5.48578125 6.578125 5.4140625 C4.00933618 5.00149945 2.24158985 4.28839043 0 3 C0 2.01 0 1.02 0 0 Z " fill="#DDC09F" transform="translate(494,206)"/>
<path d="M0 0 C0.99 0.33 1.98 0.66 3 1 C1.51194289 6.80342274 -1.59097555 11.17590879 -5 16 C-5.99 15.67 -6.98 15.34 -8 15 C-4.25 8.125 -4.25 8.125 -2 7 C-1.61781233 5.34385343 -1.28604898 3.67542976 -1 2 C-0.67 1.34 -0.34 0.68 0 0 Z " fill="#D8B58F" transform="translate(567,174)"/>
<path d="M0 0 C-0.08708669 1.45945288 -0.19526907 2.91765868 -0.3125 4.375 C-0.37050781 5.18710937 -0.42851562 5.99921875 -0.48828125 6.8359375 C-1 9 -1 9 -4 11 C-7.1875 11.125 -7.1875 11.125 -10 11 C-8.96905133 8.42262834 -8.4891374 7.23715753 -5.9375 6 C-5.298125 5.67 -4.65875 5.34 -4 5 C-3.34786708 2.97536745 -3.34786708 2.97536745 -3 1 C-1 0 -1 0 0 0 Z " fill="#C18E59" transform="translate(241,301)"/>
<path d="M0 0 C5.02692063 0.45699278 8.14896261 2.99241748 12 6 C10.6875 7.5 10.6875 7.5 9 9 C8.01 9 7.02 9 6 9 C4.39453125 7.28515625 4.39453125 7.28515625 2.8125 5.0625 C2.28269531 4.33160156 1.75289063 3.60070312 1.20703125 2.84765625 C0 1 0 1 0 0 Z " fill="#C38E54" transform="translate(343,263)"/>
<path d="M0 0 C6.75 0.75 6.75 0.75 9 3 C9.33 3.99 9.66 4.98 10 6 C10.66 6.33 11.32 6.66 12 7 C13.44504746 11.21472177 12.60642307 13.9366946 11 18 C10.67 18 10.34 18 10 18 C9.90203125 17.16855469 9.8040625 16.33710938 9.703125 15.48046875 C9.55359375 14.39378906 9.4040625 13.30710937 9.25 12.1875 C9.04117187 10.56908203 9.04117187 10.56908203 8.828125 8.91796875 C7.86640892 5.5292805 6.99648904 4.72525127 4 3 C2.68163705 2.30419733 1.35208914 1.62775567 0 1 C0 0.67 0 0.34 0 0 Z " fill="#C08C54" transform="translate(281,285)"/>
<path d="M0 0 C0.66 0 1.32 0 2 0 C3.49697302 5.68849748 2.3348044 10.41809068 1 16 C0.34 16 -0.32 16 -1 16 C-1.33 16.99 -1.66 17.98 -2 19 C-3.35015859 14.94952424 -2.62084998 12.2079832 -2 8 C-1.67 8 -1.34 8 -1 8 C-0.67 5.36 -0.34 2.72 0 0 Z " fill="#CDA06E" transform="translate(399,177)"/>
<path d="M0 0 C2.4384028 2.4384028 3.58920371 4.9135688 5.125 8 C5.66382813 9.0725 6.20265625 10.145 6.7578125 11.25 C8 14 8 14 8 16 C5.18512995 15.37447332 3.46040765 14.65457317 1.77734375 12.26171875 C-0.19827903 8.50166249 -1.65716005 5.33725636 -1 1 C-0.67 0.67 -0.34 0.34 0 0 Z " fill="#DABA96" transform="translate(195,170)"/>
<path d="M0 0 C0.66 0 1.32 0 2 0 C2 7.26 2 14.52 2 22 C1.34 21.67 0.68 21.34 0 21 C-1.49076862 13.95273016 -0.70538421 7.11895448 0 0 Z " fill="#CD9F6D" transform="translate(166,130)"/>
<path d="M0 0 C3.87909417 1.47138055 5.01056241 3.45361125 7 7 C8.33378575 8.8354799 8.33378575 8.8354799 10 10 C11.32 10 12.64 10 14 10 C14.33 10.99 14.66 11.98 15 13 C11.7 13 8.4 13 5 13 C4.67 12.34 4.34 11.68 4 11 C4.99 10.67 5.98 10.34 7 10 C6.4946875 9.44570313 5.989375 8.89140625 5.46875 8.3203125 C4.8190625 7.59585937 4.169375 6.87140625 3.5 6.125 C2.8503125 5.40570313 2.200625 4.68640625 1.53125 3.9453125 C0 2 0 2 0 0 Z " fill="#C0874C" transform="translate(411,300)"/>
<path d="M0 0 C0.99 0.33 1.98 0.66 3 1 C2.74337755 2.44010481 2.46909179 3.8770687 2.1875 5.3125 C2.03667969 6.11300781 1.88585937 6.91351563 1.73046875 7.73828125 C0.92427764 10.23445587 -0.02052002 11.32422106 -2 13 C-3.71050559 8.02398374 -2.00885647 4.57383705 0 0 Z " fill="#DBBB98" transform="translate(302,165)"/>
<path d="M0 0 C0.99 0 1.98 0 3 0 C1.56835889 3.65938172 0.01065704 7.23988068 -1.625 10.8125 C-2.29402344 12.27623047 -2.29402344 12.27623047 -2.9765625 13.76953125 C-3.31429687 14.50558594 -3.65203125 15.24164063 -4 16 C-4.33 16 -4.66 16 -5 16 C-6.22822095 12.66625743 -6.27942771 10.63011886 -4.8359375 7.375 C-1.90932361 2.30028035 -1.90932361 2.30028035 0 0 Z " fill="#DDC0A0" transform="translate(200,91)"/>
<path d="M0 0 C3.08991481 -0.31431892 4.50263979 -0.39455938 6.984375 1.57421875 C7.56703125 2.27160156 8.1496875 2.96898438 8.75 3.6875 C9.34296875 4.37199219 9.9359375 5.05648437 10.546875 5.76171875 C12.13542178 8.20859323 12.61788774 10.12913029 13 13 C12.01 13.495 12.01 13.495 11 14 C8.1037037 9.46666667 8.1037037 9.46666667 7.5 6.75 C7.335 6.1725 7.17 5.595 7 5 C6.01 4.67 5.02 4.34 4 4 C3.67 3.34 3.34 2.68 3 2 C2.01 1.67 1.02 1.34 0 1 C0 0.67 0 0.34 0 0 Z " fill="#D7B58E" transform="translate(95,77)"/>
<path d="M0 0 C1.43931117 0.45261358 2.87638999 0.91232979 4.3125 1.375 C5.11300781 1.63023438 5.91351563 1.88546875 6.73828125 2.1484375 C9 3 9 3 12 5 C12 5.99 12 6.98 12 8 C11.34 7.731875 10.68 7.46375 10 7.1875 C6.35060933 5.74294953 2.67754567 4.37128822 -1 3 C-0.67 2.01 -0.34 1.02 0 0 Z " fill="#DBBB99" transform="translate(264,67)"/>
<path d="M0 0 C1.98 0.66 3.96 1.32 6 2 C6 2.66 6 3.32 6 4 C2.73086376 5.03115279 0.13958652 4.9638984 -3.25 4.5625 C-4.14203125 4.46066406 -5.0340625 4.35882813 -5.953125 4.25390625 C-6.62859375 4.17011719 -7.3040625 4.08632813 -8 4 C-8 3.34 -8 2.68 -8 2 C-6.865625 1.855625 -5.73125 1.71125 -4.5625 1.5625 C-1.19222799 1.38828522 -1.19222799 1.38828522 0 0 Z " fill="#C0874B" transform="translate(336,260)"/>
<path d="M0 0 C0.99 0.495 0.99 0.495 2 1 C2.144375 1.66 2.28875 2.32 2.4375 3 C2.623125 3.66 2.80875 4.32 3 5 C3.99 5.33 4.98 5.66 6 6 C6 6.66 6 7.32 6 8 C6.66 8 7.32 8 8 8 C8 8.66 8 9.32 8 10 C8.99 10.33 9.98 10.66 11 11 C10.67 11.66 10.34 12.32 10 13 C5.13045212 11.60870061 2.83659727 9.13332746 0 5 C-0.3125 2.125 -0.3125 2.125 0 0 Z " fill="#DAB996" transform="translate(472,187)"/>
<path d="M0 0 C3.45201639 1.47721422 5.64961936 3.43794001 8.25 6.125 C8.95640625 6.84945312 9.6628125 7.57390625 10.390625 8.3203125 C11.18726563 9.15175781 11.18726563 9.15175781 12 10 C11.67 10.66 11.34 11.32 11 12 C5.64186529 9.17209557 2.4547847 5.52326557 0 0 Z " fill="#D3AE84" transform="translate(547,75)"/>
<path d="M0 0 C9.5049505 -0.31683168 9.5049505 -0.31683168 13.75 3.625 C14.1625 4.07875 14.575 4.5325 15 5 C9.99109914 4.38487182 4.99367864 3.7282448 0 3 C0 2.01 0 1.02 0 0 Z " fill="#DFC4A6" transform="translate(519,65)"/>
<path d="M0 0 C0.66 0.33 1.32 0.66 2 1 C2 1.66 2 2.32 2 3 C-2.95 5.475 -2.95 5.475 -8 8 C-8.99 7.01 -9.98 6.02 -11 5 C-9.21289414 4.13633178 -7.4201535 3.28431406 -5.625 2.4375 C-4.62726563 1.96183594 -3.62953125 1.48617187 -2.6015625 0.99609375 C-1.74304688 0.66738281 -0.88453125 0.33867187 0 0 Z " fill="#D7B38D" transform="translate(277,202)"/>
<path d="M0 0 C3.63 0 7.26 0 11 0 C11.33 0.66 11.66 1.32 12 2 C9.59454362 3.20272819 8.05003047 3.10071472 5.375 3.0625 C4.14910156 3.04896484 4.14910156 3.04896484 2.8984375 3.03515625 C1.95871094 3.01775391 1.95871094 3.01775391 1 3 C0.67 2.01 0.34 1.02 0 0 Z " fill="#C48E54" transform="translate(269,261)"/>
<path d="M0 0 C1.51865978 4.55597933 -0.5715291 7.12657855 -2.625 11.3125 C-3.07875 12.199375 -3.5325 13.08625 -4 14 C-4.99 13.01 -5.98 12.02 -7 11 C-4.69 7.37 -2.38 3.74 0 0 Z " fill="#D4AF86" transform="translate(471,87)"/>
<path d="M0 0 C-0.66 1.32 -1.32 2.64 -2 4 C-8.625 4.25 -8.625 4.25 -12 2 C-11.67 1.34 -11.34 0.68 -11 0 C-7.08234111 -0.81309902 -3.82092412 -1.37553268 0 0 Z " fill="#CEA575" transform="translate(34,68)"/>
<path d="M0 0 C4.875 2.75 4.875 2.75 6 5 C-0.435 5.495 -0.435 5.495 -7 6 C-7 5.34 -7 4.68 -7 4 C-5.02 3.67 -3.04 3.34 -1 3 C-0.67 2.01 -0.34 1.02 0 0 Z " fill="#C1905D" transform="translate(183,308)"/>
<path d="M0 0 C2.31 0 4.62 0 7 0 C7.33 0.66 7.66 1.32 8 2 C7.01 2.33 6.02 2.66 5 3 C7.97 3.33 10.94 3.66 14 4 C9.73391559 6.1330422 7.67687254 6.59523832 3 6 C0 2.22580645 0 2.22580645 0 0 Z " fill="#D8BA99" transform="translate(411,309)"/>
<path d="M0 0 C2.31 0 4.62 0 7 0 C6 3 6 3 3.5625 4.9375 C1.10694869 6.91391935 0.12960279 8.12464744 -1 11 C-2.41687119 6.74938644 -1.19320039 4.28148375 0 0 Z " fill="#D3AA7D" transform="translate(432,262)"/>
<path d="M0 0 C1.093125 0.226875 2.18625 0.45375 3.3125 0.6875 C3.3125 1.3475 3.3125 2.0075 3.3125 2.6875 C5.6225 2.6875 7.9325 2.6875 10.3125 2.6875 C7.1375906 4.5953584 5.20664789 4.8484041 1.5625 4.3125 C0.76328125 4.20164063 -0.0359375 4.09078125 -0.859375 3.9765625 C-1.46265625 3.88117188 -2.0659375 3.78578125 -2.6875 3.6875 C-2.6875 3.0275 -2.6875 2.3675 -2.6875 1.6875 C-4.0075 2.0175 -5.3275 2.3475 -6.6875 2.6875 C-4.58035839 -0.41123767 -3.86755884 -0.32775922 0 0 Z " fill="#DFC19F" transform="translate(357.6875,215.3125)"/>
<path d="M0 0 C3.12981912 0.33533776 4.00061159 1.00066401 6.1875 3.375 C8 6 8 6 9 9 C4.5937814 7.65365543 2.56922298 5.80625626 0 2 C0 1.34 0 0.68 0 0 Z " fill="#D5AF86" transform="translate(319,302)"/>
<path d="M0 0 C0.66 0.66 1.32 1.32 2 2 C0 4 -2 6 -4 8 C-4.28875 7.38125 -4.5775 6.7625 -4.875 6.125 C-5.93720042 3.86674235 -5.93720042 3.86674235 -8 2 C-6.71254964 1.61077082 -5.41980403 1.23901964 -4.125 0.875 C-3.04605469 0.56175781 -3.04605469 0.56175781 -1.9453125 0.2421875 C-1.30335938 0.16226562 -0.66140625 0.08234375 0 0 Z " fill="#D5AE86" transform="translate(407,281)"/>
<path d="M0 0 C0 0.66 0 1.32 0 2 C-3.96 2 -7.92 2 -12 2 C-12 1.34 -12 0.68 -12 0 C-7.6835078 -0.76173392 -4.25566547 -1.16063604 0 0 Z " fill="#BC7F3C" transform="translate(343,312)"/>
<path d="M0 0 C0 0.66 0 1.32 0 2 C-4.62 2 -9.24 2 -14 2 C-13.67 1.34 -13.34 0.68 -13 0 C-11.906875 0.020625 -10.81375 0.04125 -9.6875 0.0625 C-0.29032258 -0.09677419 -0.29032258 -0.09677419 0 0 Z " fill="#C28C53" transform="translate(159,311)"/>
<path d="M0 0 C1.45606519 4.52092968 0.27032841 7.51648796 -1 12 C-1.99 11.67 -2.98 11.34 -4 11 C-3.56179109 6.44262737 -3.14958831 3.42346555 0 0 Z " fill="#E3CAAE" transform="translate(462,108)"/>
<path d="M0 0 C2.85695684 2.85695684 2.68236787 4.99783516 3 9 C2.79853943 12.0219086 2.44153436 15.00435917 2 18 C1.67 18 1.34 18 1 18 C0.93941406 17.25234375 0.87882812 16.5046875 0.81640625 15.734375 C0.73261719 14.74953125 0.64882813 13.7646875 0.5625 12.75 C0.48128906 11.77546875 0.40007812 10.8009375 0.31640625 9.796875 C0.08226251 7.07925174 0.08226251 7.07925174 -0.59765625 4.828125 C-1 3 -1 3 0 0 Z " fill="#D0A678" transform="translate(380,74)"/>
<path d="M0 0 C1.74410156 0.42539062 1.74410156 0.42539062 3.5234375 0.859375 C5.27527344 1.26929687 5.27527344 1.26929687 7.0625 1.6875 C7.99835938 1.99171875 8.93421875 2.2959375 9.8984375 2.609375 C10.2284375 3.269375 10.5584375 3.929375 10.8984375 4.609375 C4.2734375 4.859375 4.2734375 4.859375 0.8984375 2.609375 C-1.42544197 2.21549712 -3.75949999 1.87451415 -6.1015625 1.609375 C-3.1015625 -0.390625 -3.1015625 -0.390625 0 0 Z " fill="#CB9E6C" transform="translate(59.1015625,63.390625)"/>
<path d="M0 0 C0.33 0.66 0.66 1.32 1 2 C-0.051875 2.12375 -1.10375 2.2475 -2.1875 2.375 C-5.90036445 2.84253578 -5.90036445 2.84253578 -8.8125 4.125 C-9.534375 4.41375 -10.25625 4.7025 -11 5 C-11.66 4.67 -12.32 4.34 -13 4 C-13 3.34 -13 2.68 -13 2 C-8.71 1.34 -4.42 0.68 0 0 Z " fill="#CEA16F" transform="translate(276,310)"/>
<path d="M0 0 C0.66 0 1.32 0 2 0 C2.144375 1.11375 2.28875 2.2275 2.4375 3.375 C2.78372035 6.82142047 2.78372035 6.82142047 4 9 C3.34 9 2.68 9 2 9 C2 9.66 2 10.32 2 11 C1.34 11 0.68 11 0 11 C0 7.37 0 3.74 0 0 Z " fill="#BC7E3E" transform="translate(258,300)"/>
<path d="M0 0 C2.23551759 3.35327639 2.17283528 3.90743657 1.625 7.6875 C1.51414063 8.49574219 1.40328125 9.30398437 1.2890625 10.13671875 C1.19367188 10.75160156 1.09828125 11.36648437 1 12 C-0.625 10.5 -0.625 10.5 -2 8 C-1.65955497 5.16836197 -0.86771089 2.74013964 0 0 Z " fill="#DAB995" transform="translate(191,111)"/>
<path d="M0 0 C0.66 0 1.32 0 2 0 C1.67 0.99 1.34 1.98 1 3 C0.34 3 -0.32 3 -1 3 C-1 4.65 -1 6.3 -1 8 C-2.32 7.67 -3.64 7.34 -5 7 C-4.67 5.35 -4.34 3.7 -4 2 C-2.68 2 -1.36 2 0 2 C0 1.34 0 0.68 0 0 Z " fill="#CFA274" transform="translate(277,282)"/>
<path d="M0 0 C0.33 0.66 0.66 1.32 1 2 C4.63 2 8.26 2 12 2 C12 2.33 12 2.66 12 3 C10.35 3 8.7 3 7 3 C7 3.66 7 4.32 7 5 C4.69 4.67 2.38 4.34 0 4 C0 2.68 0 1.36 0 0 Z " fill="#C48D54" transform="translate(23,212)"/>
<path d="M0 0 C3.63 0 7.26 0 11 0 C10.67 0.66 10.34 1.32 10 2 C7.49609375 2.4140625 7.49609375 2.4140625 4.4375 2.625 C3.42558594 2.69976562 2.41367188 2.77453125 1.37109375 2.8515625 C0.58863281 2.90054687 -0.19382813 2.94953125 -1 3 C-0.67 2.01 -0.34 1.02 0 0 Z " fill="#F5ECE0" transform="translate(154,283)"/>
<path d="M0 0 C0.495 0.309375 0.99 0.61875 1.5 0.9375 C4.97986781 2.41644382 8.24028509 2.62402851 12 3 C11.67 3.66 11.34 4.32 11 5 C9.54207116 5.05399736 8.08357288 5.09279177 6.625 5.125 C5.81289063 5.14820313 5.00078125 5.17140625 4.1640625 5.1953125 C2 5 2 5 0 3 C0 2.01 0 1.02 0 0 Z " fill="#E1C5A7" transform="translate(266,261)"/>
<path d="M0 0 C1.12894876 0.93274109 2.25300876 1.87140122 3.375 2.8125 C4.00148438 3.33457031 4.62796875 3.85664063 5.2734375 4.39453125 C7 6 7 6 9 9 C6.0625 8.1875 6.0625 8.1875 3 7 C2.67 6.01 2.34 5.02 2 4 C1.01 3.34 0.02 2.68 -1 2 C-0.67 1.34 -0.34 0.68 0 0 Z " fill="#BF905D" transform="translate(455,192)"/>
<path d="M0 0 C1 1.33333333 2 2.66666667 3 4 C3.5775 4.680625 4.155 5.36125 4.75 6.0625 C5.1625 6.701875 5.575 7.34125 6 8 C5.67 8.99 5.34 9.98 5 11 C0.07692308 5.70769231 0.07692308 5.70769231 -0.3125 2.125 C-0.209375 1.42375 -0.10625 0.7225 0 0 Z " fill="#D5AF86" transform="translate(203,186)"/>
<path d="M0 0 C2.89932357 2.39509338 3.50168276 4.31245243 4 8 C3.01 8 2.02 8 1 8 C0.26919734 6.02253397 -0.39421747 4.01927511 -1 2 C-0.67 1.34 -0.34 0.68 0 0 Z " fill="#D8B691" transform="translate(113,151)"/>
<path d="M0 0 C0.33 0.99 0.66 1.98 1 3 C-3.455 4.485 -3.455 4.485 -8 6 C-8 5.01 -8 4.02 -8 3 C-2.25 0 -2.25 0 0 0 Z " fill="#DBBA97" transform="translate(228,68)"/>
<path d="M0 0 C2.31 0 4.62 0 7 0 C7.66 1.32 8.32 2.64 9 4 C3.46153846 3.38461538 3.46153846 3.38461538 1.125 1.4375 C0.75375 0.963125 0.3825 0.48875 0 0 Z " fill="#D0A679" transform="translate(222,206)"/>
<path d="M0 0 C-0.33 3.3 -0.66 6.6 -1 10 C-3.29013653 6.5647952 -3.17842973 5.014669 -3 1 C-1 0 -1 0 0 0 Z " fill="#D7B28B" transform="translate(460,152)"/>
<path d="M0 0 C2.72869407 0.03287583 5.2966618 0.56397771 8 1 C7.67 1.99 7.34 2.98 7 4 C2.545 3.01 2.545 3.01 -2 2 C-1.34 1.34 -0.68 0.68 0 0 Z " fill="#DDC0A0" transform="translate(91,137)"/>
<path d="M0 0 C2.2477975 2.05233685 3.0022242 3.00667261 4 6 C3.72428861 8.00875442 3.39764263 10.01178687 3 12 C0.60926555 8.17482487 0.44033448 4.40334476 0 0 Z " fill="#C38E54" transform="translate(325,114)"/>
<path d="M0 0 C0 0.99 0 1.98 0 3 C-3.375 3.625 -3.375 3.625 -7 4 C-7.66 3.34 -8.32 2.68 -9 2 C-5.86501708 0.14223235 -3.62528568 -0.20140476 0 0 Z " fill="#D4AE83" transform="translate(504,66)"/>
<path d="M0 0 C1.65 0.33 3.3 0.66 5 1 C5.33 2.32 5.66 3.64 6 5 C3.69 4.34 1.38 3.68 -1 3 C-0.67 2.01 -0.34 1.02 0 0 Z " fill="#DDC09F" transform="translate(87,71)"/>
<path d="M0 0 C2.4375 0.75 2.4375 0.75 5 2 C5.8125 4.125 5.8125 4.125 6 6 C0.25 4.25 0.25 4.25 -2 2 C-1.34 1.34 -0.68 0.68 0 0 Z " fill="#DFC4A5" transform="translate(536,68)"/>
<path d="M0 0 C1.65 0 3.3 0 5 0 C4.67 1.98 4.34 3.96 4 6 C2.62437146 4.71034824 1.29233607 3.37310707 0 2 C0 1.34 0 0.68 0 0 Z " fill="#C89560" transform="translate(468,264)"/>
<path d="M0 0 C0.66 0 1.32 0 2 0 C3.15957207 3.47871621 2.77456651 4.34219645 1.5625 7.6875 C1.27503906 8.49574219 0.98757813 9.30398437 0.69140625 10.13671875 C0.34916016 11.05904297 0.34916016 11.05904297 0 12 C-0.33 12 -0.66 12 -1 12 C-1.08159574 7.83861737 -0.98248524 4.0527516 0 0 Z " fill="#CEA473" transform="translate(594,156)"/>
<path d="M0 0 C1.0625 1.8125 1.0625 1.8125 2 4 C1.67 4.99 1.34 5.98 1 7 C-0.65 5.35 -2.3 3.7 -4 2 C-2.68 1.34 -1.36 0.68 0 0 Z " fill="#DDBD9C" transform="translate(344,307)"/>
<path d="M0 0 C2 2 2 2 2.125 5.125 C2.08375 6.07375 2.0425 7.0225 2 8 C1.01 8 0.02 8 -1 8 C-0.67 5.36 -0.34 2.72 0 0 Z " fill="#D3AD84" transform="translate(305,116)"/>
<path d="M0 0 C2.64 0.99 5.28 1.98 8 3 C8 3.33 8 3.66 8 4 C2.25 5.125 2.25 5.125 0 4 C0 2.68 0 1.36 0 0 Z " fill="#C38B50" transform="translate(367,65)"/>
<path d="M0 0 C2.97 0.99 5.94 1.98 9 3 C8.01 3.66 7.02 4.32 6 5 C2.8125 4.125 2.8125 4.125 0 3 C0 2.01 0 1.02 0 0 Z " fill="#D4AC81" transform="translate(271,60)"/>
<path d="M0 0 C0.928125 0.2784375 0.928125 0.2784375 1.875 0.5625 C4.04160178 1.23686176 4.04160178 1.23686176 6 0 C5.67 1.32 5.34 2.64 5 4 C3.02 4 1.04 4 -1 4 C-0.67 2.68 -0.34 1.36 0 0 Z " fill="#CA9D6B" transform="translate(232,308)"/>
<path d="M0 0 C2.475 0.99 2.475 0.99 5 2 C4.01 3.485 4.01 3.485 3 5 C0 4 0 4 -2 2 C-1.34 1.34 -0.68 0.68 0 0 Z " fill="#D6B18A" transform="translate(167,280)"/>
<path d="M0 0 C0.66 0.66 1.32 1.32 2 2 C1.75 4.5625 1.75 4.5625 1 7 C0.01 7.495 0.01 7.495 -1 8 C-1.33 6.35 -1.66 4.7 -2 3 C-1.34 3 -0.68 3 0 3 C0 2.01 0 1.02 0 0 Z " fill="#CD9E6C" transform="translate(288,267)"/>
<path d="M0 0 C0.66 0 1.32 0 2 0 C2 1.98 2 3.96 2 6 C1.01 6.495 1.01 6.495 0 7 C-0.66 5.35 -1.32 3.7 -2 2 C-1.34 1.34 -0.68 0.68 0 0 Z " fill="#C28A4F" transform="translate(320,264)"/>
<path d="M0 0 C1.65 0.33 3.3 0.66 5 1 C3.68 2.32 2.36 3.64 1 5 C0.34 4.01 -0.32 3.02 -1 2 C-0.67 1.34 -0.34 0.68 0 0 Z " fill="#C48F57" transform="translate(169,264)"/>
<path d="M0 0 C0 3 0 3 -2 5.1875 C-2.66 5.785625 -3.32 6.38375 -4 7 C-4.99 6.67 -5.98 6.34 -7 6 C-4.69 4.02 -2.38 2.04 0 0 Z " fill="#F3E8DC" transform="translate(556,193)"/>
<path d="M0 0 C1.32 0.33 2.64 0.66 4 1 C4.33 2.65 4.66 4.3 5 6 C4.01 6 3.02 6 2 6 C1.34 4.02 0.68 2.04 0 0 Z " fill="#DDBE9D" transform="translate(564,98)"/>
<path d="M0 0 C3 1 3 1 3 1 Z " fill="#FFFFFD" transform="translate(39,216)"/>
<path d="M0 0 C2 1 2 1 2 1 Z " fill="#FEFEFF" transform="translate(92,206)"/>
<path d="M0 0 C2 1 2 1 2 1 Z " fill="#FEFEFD" transform="translate(77,62)"/>
<path d="" fill="#FFFEFC" transform="translate(0,0)"/>
<path d="" fill="#FEFDFD" transform="translate(0,0)"/>
<path d="" fill="#FDFFFB" transform="translate(0,0)"/>
<path d="" fill="#FDFDFF" transform="translate(0,0)"/>
<path d="" fill="#FFFDFD" transform="translate(0,0)"/>
<path d="" fill="#FFFDFD" transform="translate(0,0)"/>
<path d="" fill="#FCFFFC" transform="translate(0,0)"/>
<path d="" fill="#FFFEFA" transform="translate(0,0)"/>
<path d="" fill="#FFFFFF" transform="translate(0,0)"/>
<path d="" fill="#FFFEFE" transform="translate(0,0)"/>
<path d="" fill="#FEFEFF" transform="translate(0,0)"/>
<path d="" fill="#FDFCFF" transform="translate(0,0)"/>
<path d="" fill="#FDFFFF" transform="translate(0,0)"/>
<path d="" fill="#FFFFFD" transform="translate(0,0)"/>
<path d="" fill="#FFFCFF" transform="translate(0,0)"/>
<path d="" fill="#FFFFFD" transform="translate(0,0)"/>
<path d="" fill="#FDFDFF" transform="translate(0,0)"/>
<path d="" fill="#FFFEFF" transform="translate(0,0)"/>
<path d="" fill="#FEFFFF" transform="translate(0,0)"/>
<path d="" fill="#FAFFFF" transform="translate(0,0)"/>
<path d="" fill="#FFFFFC" transform="translate(0,0)"/>
<path d="" fill="#FFFFFE" transform="translate(0,0)"/>
<path d="" fill="#FEFDFE" transform="translate(0,0)"/>
<path d="" fill="#FEFBFF" transform="translate(0,0)"/>
<path d="" fill="#FDFFFF" transform="translate(0,0)"/>
<path d="" fill="#FFFFFE" transform="translate(0,0)"/>
<path d="" fill="#FFFFFF" transform="translate(0,0)"/>
<path d="" fill="#FFFEFB" transform="translate(0,0)"/>
<path d="" fill="#FFFEFF" transform="translate(0,0)"/>
<path d="" fill="#FFFFFB" transform="translate(0,0)"/>
<path d="" fill="#FBFCFF" transform="translate(0,0)"/>
<path d="" fill="#FFFFFF" transform="translate(0,0)"/>
<path d="" fill="#FFFDFB" transform="translate(0,0)"/>
<path d="" fill="#FDFFFF" transform="translate(0,0)"/>
<path d="" fill="#FFFFFF" transform="translate(0,0)"/>
<path d="" fill="#FFFCFA" transform="translate(0,0)"/>
<path d="" fill="#FDFDFF" transform="translate(0,0)"/>
<path d="" fill="#FEFDFB" transform="translate(0,0)"/>
<path d="" fill="#FFFFFA" transform="translate(0,0)"/>
<path d="" fill="#FBFDFF" transform="translate(0,0)"/>
<path d="" fill="#FFFEFF" transform="translate(0,0)"/>
<path d="" fill="#FDFFFF" transform="translate(0,0)"/>
<path d="" fill="#FDFEFF" transform="translate(0,0)"/>
<path d="" fill="#FEFFFF" transform="translate(0,0)"/>
<path d="" fill="#FFFFFF" transform="translate(0,0)"/>
<path d="" fill="#FFFDFF" transform="translate(0,0)"/>
<path d="" fill="#FEFFFF" transform="translate(0,0)"/>
<path d="" fill="#FDFEFF" transform="translate(0,0)"/>
<path d="" fill="#FFFDFF" transform="translate(0,0)"/>
<path d="" fill="#FFFCFF" transform="translate(0,0)"/>
<path d="" fill="#FEFEFF" transform="translate(0,0)"/>
<path d="" fill="#FFFFFF" transform="translate(0,0)"/>
<path d="" fill="#FFFDFD" transform="translate(0,0)"/>
<path d="" fill="#FFFFFF" transform="translate(0,0)"/>
<path d="" fill="#FEFFFF" transform="translate(0,0)"/>
<path d="" fill="#FFFDFB" transform="translate(0,0)"/>
<path d="" fill="#FEFDFC" transform="translate(0,0)"/>
<path d="" fill="#FFFEFD" transform="translate(0,0)"/>
<path d="" fill="#FFFFFF" transform="translate(0,0)"/>
<path d="" fill="#FFFFFB" transform="translate(0,0)"/>
<path d="" fill="#FFFDFC" transform="translate(0,0)"/>
<path d="" fill="#FFFEFC" transform="translate(0,0)"/>
<path d="" fill="#FFFFFD" transform="translate(0,0)"/>
<path d="" fill="#FEFFFD" transform="translate(0,0)"/>
<path d="" fill="#FEFEFF" transform="translate(0,0)"/>
<path d="" fill="#FEFDFB" transform="translate(0,0)"/>
<path d="" fill="#FEFEFD" transform="translate(0,0)"/>
<path d="" fill="#FFFFFD" transform="translate(0,0)"/>
<path d="" fill="#FFFFFD" transform="translate(0,0)"/>
<path d="" fill="#FFFDFE" transform="translate(0,0)"/>
<path d="" fill="#FEFDFB" transform="translate(0,0)"/>
<path d="" fill="#FFFEFD" transform="translate(0,0)"/>
<path d="" fill="#FFFDFF" transform="translate(0,0)"/>
<path d="" fill="#FEFEFF" transform="translate(0,0)"/>
<path d="" fill="#FFFFFD" transform="translate(0,0)"/>
<path d="" fill="#FFFFFE" transform="translate(0,0)"/>
<path d="" fill="#FFFCFF" transform="translate(0,0)"/>
<path d="" fill="#FFFFFF" transform="translate(0,0)"/>
<path d="" fill="#FDFFFD" transform="translate(0,0)"/>
<path d="" fill="#FDFBFF" transform="translate(0,0)"/>
<path d="" fill="#FFFFFF" transform="translate(0,0)"/>
<path d="" fill="#FDFCFF" transform="translate(0,0)"/>
<path d="" fill="#FFFFFF" transform="translate(0,0)"/>
<path d="" fill="#FFFDFA" transform="translate(0,0)"/>
<path d="" fill="#FFFEFF" transform="translate(0,0)"/>
<path d="" fill="#FDFCFF" transform="translate(0,0)"/>
<path d="" fill="#FFFDFF" transform="translate(0,0)"/>
<path d="" fill="#FFFEFF" transform="translate(0,0)"/>
<path d="" fill="#FFFFFF" transform="translate(0,0)"/>
<path d="" fill="#FCFDFF" transform="translate(0,0)"/>
<path d="" fill="#FDFDFE" transform="translate(0,0)"/>
<path d="" fill="#FFFEFF" transform="translate(0,0)"/>
<path d="" fill="#FFFEFE" transform="translate(0,0)"/>
<path d="" fill="#FFFFFF" transform="translate(0,0)"/>
<path d="" fill="#FFFEFC" transform="translate(0,0)"/>
<path d="" fill="#FFFFFE" transform="translate(0,0)"/>
<path d="" fill="#FFFEFF" transform="translate(0,0)"/>
<path d="" fill="#FFFEFF" transform="translate(0,0)"/>
<path d="" fill="#FEFCFE" transform="translate(0,0)"/>
<path d="" fill="#FEFEFF" transform="translate(0,0)"/>
<path d="" fill="#FDFEFD" transform="translate(0,0)"/>
<path d="" fill="#FCFCFF" transform="translate(0,0)"/>
<path d="" fill="#FEFEFD" transform="translate(0,0)"/>
<path d="" fill="#FFFEFF" transform="translate(0,0)"/>
<path d="" fill="#FFFEFF" transform="translate(0,0)"/>
<path d="" fill="#FFFEFC" transform="translate(0,0)"/>
<path d="" fill="#FBFEFF" transform="translate(0,0)"/>
<path d="" fill="#FFFDFF" transform="translate(0,0)"/>
<path d="" fill="#FFFFFF" transform="translate(0,0)"/>
<path d="" fill="#FDFFFD" transform="translate(0,0)"/>
<path d="" fill="#FFFFFB" transform="translate(0,0)"/>
<path d="" fill="#FEFDFB" transform="translate(0,0)"/>
<path d="" fill="#FFFEFF" transform="translate(0,0)"/>
<path d="" fill="#FBFDFF" transform="translate(0,0)"/>
<path d="" fill="#FFFEFD" transform="translate(0,0)"/>
<path d="" fill="#FAFCFE" transform="translate(0,0)"/>
<path d="" fill="#FDFFFF" transform="translate(0,0)"/>
<path d="" fill="#FCFCFE" transform="translate(0,0)"/>
<path d="" fill="#FDFFFF" transform="translate(0,0)"/>
<path d="" fill="#FFFDFF" transform="translate(0,0)"/>
<path d="" fill="#FFFFFD" transform="translate(0,0)"/>
<path d="" fill="#FFFEFF" transform="translate(0,0)"/>
<path d="" fill="#FEFEFF" transform="translate(0,0)"/>
<path d="" fill="#FDFEFF" transform="translate(0,0)"/>
<path d="" fill="#FFFFFF" transform="translate(0,0)"/>
<path d="" fill="#FBFCFF" transform="translate(0,0)"/>
<path d="" fill="#FFFDFF" transform="translate(0,0)"/>
<path d="" fill="#FFFEFD" transform="translate(0,0)"/>
<path d="" fill="#FFFFFF" transform="translate(0,0)"/>
<path d="" fill="#FDFDFE" transform="translate(0,0)"/>
<path d="" fill="#FFFEFF" transform="translate(0,0)"/>
<path d="" fill="#FDFCFF" transform="translate(0,0)"/>
<path d="" fill="#FCFFFF" transform="translate(0,0)"/>
<path d="" fill="#FFFBFF" transform="translate(0,0)"/>
<path d="" fill="#FDFEFF" transform="translate(0,0)"/>
<path d="" fill="#FFFDFC" transform="translate(0,0)"/>
<path d="" fill="#FFFFFF" transform="translate(0,0)"/>
<path d="" fill="#FFFDFB" transform="translate(0,0)"/>
<path d="" fill="#FFFCFD" transform="translate(0,0)"/>
<path d="" fill="#FFFFFF" transform="translate(0,0)"/>
<path d="" fill="#FFFFFD" transform="translate(0,0)"/>
<path d="" fill="#FEFFFF" transform="translate(0,0)"/>
<path d="" fill="#FCFCFF" transform="translate(0,0)"/>
<path d="" fill="#FFFFFF" transform="translate(0,0)"/>
<path d="" fill="#FFFEFF" transform="translate(0,0)"/>
<path d="" fill="#FEFFFF" transform="translate(0,0)"/>
<path d="" fill="#FFFEFD" transform="translate(0,0)"/>
<path d="" fill="#FFFEFF" transform="translate(0,0)"/>
<path d="" fill="#FFFFFF" transform="translate(0,0)"/>
<path d="" fill="#FEFEFD" transform="translate(0,0)"/>
<path d="" fill="#FFFEFA" transform="translate(0,0)"/>
<path d="" fill="#FFFCF9" transform="translate(0,0)"/>
<path d="" fill="#FFFFFF" transform="translate(0,0)"/>
<path d="" fill="#FFFDFA" transform="translate(0,0)"/>
<path d="" fill="#FFFDFC" transform="translate(0,0)"/>
<path d="" fill="#FDFEFF" transform="translate(0,0)"/>
<path d="" fill="#FFFDFD" transform="translate(0,0)"/>
<path d="" fill="#FFFDFD" transform="translate(0,0)"/>
<path d="" fill="#FFFFFF" transform="translate(0,0)"/>
<path d="" fill="#FFFFFC" transform="translate(0,0)"/>
<path d="" fill="#FFFFFB" transform="translate(0,0)"/>
</svg>
